<?xml version="1.0" encoding="UTF-8" standalone="no"?>
<!-- Created with Inkscape (http://www.inkscape.org/) -->

<svg
   xmlns:dc="http://purl.org/dc/elements/1.1/"
   xmlns:cc="http://creativecommons.org/ns#"
   xmlns:rdf="http://www.w3.org/1999/02/22-rdf-syntax-ns#"
   xmlns:svg="http://www.w3.org/2000/svg"
   xmlns="http://www.w3.org/2000/svg"
   xmlns:sodipodi="http://sodipodi.sourceforge.net/DTD/sodipodi-0.dtd"
   xmlns:inkscape="http://www.inkscape.org/namespaces/inkscape"
   version="1.1"
   width="3883.5383"
   height="1196.6995"
   id="svg2"
   inkscape:version="0.48.2 r9819"
   sodipodi:docname="cabezal.svg">
  <sodipodi:namedview
     pagecolor="#202020"
     bordercolor="#666666"
     borderopacity="1"
     objecttolerance="10"
     gridtolerance="10"
     guidetolerance="10"
     inkscape:pageopacity="1"
     inkscape:pageshadow="2"
     inkscape:window-width="1366"
     inkscape:window-height="743"
     id="namedview17"
     showgrid="false"
     inkscape:zoom="0.22627417"
     inkscape:cx="2309.9925"
     inkscape:cy="-115.66895"
     inkscape:window-x="0"
     inkscape:window-y="24"
     inkscape:window-maximized="1"
     inkscape:current-layer="g4042"
     showguides="true"
     inkscape:guide-bbox="true"
     fit-margin-top="0"
     fit-margin-left="0"
     fit-margin-right="0"
     fit-margin-bottom="0" />
  <metadata
     id="metadata8">
    <rdf:RDF>
      <cc:Work
         rdf:about="">
        <dc:format>image/svg+xml</dc:format>
        <dc:type
           rdf:resource="http://purl.org/dc/dcmitype/StillImage" />
        <dc:title />
      </cc:Work>
    </rdf:RDF>
  </metadata>
  <defs
     id="defs6">
    <filter
       id="filter3012"
       inkscape:label="Chalk and sponge"
       inkscape:menu="Distort"
       inkscape:menu-tooltip="Low turbulence gives sponge look and high turbulence chalk"
       width="1.6"
       height="2"
       y="-0.5"
       x="-0.30000001"
       color-interpolation-filters="sRGB">
      <feTurbulence
         id="feTurbulence3014"
         baseFrequency="0.4"
         type="fractalNoise"
         seed="0"
         numOctaves="5"
         result="result1" />
      <feOffset
         id="feOffset3016"
         dx="-5"
         dy="-5"
         result="result2" />
      <feDisplacementMap
         id="feDisplacementMap3018"
         in2="result1"
         xChannelSelector="R"
         yChannelSelector="G"
         scale="30"
         in="SourceGraphic" />
    </filter>
    <filter
       id="filter3792"
       inkscape:label="Chalk and sponge"
       inkscape:menu="Distort"
       inkscape:menu-tooltip="Low turbulence gives sponge look and high turbulence chalk"
       width="1.6"
       height="2"
       y="-0.5"
       x="-0.30000001"
       color-interpolation-filters="sRGB">
      <feTurbulence
         id="feTurbulence3794"
         baseFrequency="0.4"
         type="fractalNoise"
         seed="0"
         numOctaves="5"
         result="result1" />
      <feOffset
         id="feOffset3796"
         dx="-5"
         dy="-5"
         result="result2" />
      <feDisplacementMap
         id="feDisplacementMap3798"
         in2="result1"
         xChannelSelector="R"
         yChannelSelector="G"
         scale="30"
         in="SourceGraphic" />
    </filter>
    <filter
       id="filter3800"
       inkscape:label="Chalk and sponge"
       inkscape:menu="Distort"
       inkscape:menu-tooltip="Low turbulence gives sponge look and high turbulence chalk"
       width="1.6"
       height="2"
       y="-0.5"
       x="-0.30000001"
       color-interpolation-filters="sRGB">
      <feTurbulence
         id="feTurbulence3802"
         baseFrequency="0.4"
         type="fractalNoise"
         seed="0"
         numOctaves="5"
         result="result1" />
      <feOffset
         id="feOffset3804"
         dx="-5"
         dy="-5"
         result="result2" />
      <feDisplacementMap
         id="feDisplacementMap3806"
         in2="result1"
         xChannelSelector="R"
         yChannelSelector="G"
         scale="30"
         in="SourceGraphic" />
    </filter>
    <filter
       id="filter3829"
       inkscape:label="Chalk and sponge"
       inkscape:menu="Distort"
       inkscape:menu-tooltip="Low turbulence gives sponge look and high turbulence chalk"
       width="1.6"
       height="2"
       y="-0.5"
       x="-0.30000001"
       color-interpolation-filters="sRGB">
      <feTurbulence
         id="feTurbulence3831"
         baseFrequency="0.4"
         type="fractalNoise"
         seed="0"
         numOctaves="5"
         result="result1" />
      <feOffset
         id="feOffset3833"
         dx="-5"
         dy="-5"
         result="result2" />
      <feDisplacementMap
         id="feDisplacementMap3835"
         in2="result1"
         xChannelSelector="R"
         yChannelSelector="G"
         scale="30"
         in="SourceGraphic" />
    </filter>
    <filter
       id="filter3837"
       inkscape:label="Chalk and sponge"
       inkscape:menu="Distort"
       inkscape:menu-tooltip="Low turbulence gives sponge look and high turbulence chalk"
       width="1.6"
       height="2"
       y="-0.5"
       x="-0.30000001"
       color-interpolation-filters="sRGB">
      <feTurbulence
         id="feTurbulence3839"
         baseFrequency="0.4"
         type="fractalNoise"
         seed="0"
         numOctaves="5"
         result="result1" />
      <feOffset
         id="feOffset3841"
         dx="-5"
         dy="-5"
         result="result2" />
      <feDisplacementMap
         id="feDisplacementMap3843"
         in2="result1"
         xChannelSelector="R"
         yChannelSelector="G"
         scale="30"
         in="SourceGraphic" />
    </filter>
    <filter
       id="filter3845"
       inkscape:label="Chalk and sponge"
       inkscape:menu="Distort"
       inkscape:menu-tooltip="Low turbulence gives sponge look and high turbulence chalk"
       width="1.6"
       height="2"
       y="-0.5"
       x="-0.30000001"
       color-interpolation-filters="sRGB">
      <feTurbulence
         id="feTurbulence3847"
         baseFrequency="0.4"
         type="fractalNoise"
         seed="0"
         numOctaves="5"
         result="result1" />
      <feOffset
         id="feOffset3849"
         dx="-5"
         dy="-5"
         result="result2" />
      <feDisplacementMap
         id="feDisplacementMap3851"
         in2="result1"
         xChannelSelector="R"
         yChannelSelector="G"
         scale="30"
         in="SourceGraphic" />
    </filter>
    <filter
       id="filter3829-5"
       inkscape:label="Chalk and sponge"
       inkscape:menu="Distort"
       inkscape:menu-tooltip="Low turbulence gives sponge look and high turbulence chalk"
       width="1.6"
       height="2"
       y="-0.5"
       x="-0.30000001"
       color-interpolation-filters="sRGB">
      <feTurbulence
         id="feTurbulence3831-3"
         baseFrequency="0.4"
         type="fractalNoise"
         seed="0"
         numOctaves="5"
         result="result1" />
      <feOffset
         id="feOffset3833-2"
         dx="-5"
         dy="-5"
         result="result2" />
      <feDisplacementMap
         id="feDisplacementMap3835-4"
         in2="result1"
         xChannelSelector="R"
         yChannelSelector="G"
         scale="30"
         in="SourceGraphic" />
    </filter>
    <filter
       id="filter4024"
       inkscape:label="Roughen"
       inkscape:menu="ABCs"
       inkscape:menu-tooltip="Small-scale roughening to edges and content"
       color-interpolation-filters="sRGB">
      <feTurbulence
         id="feTurbulence4026"
         numOctaves="3"
         seed="0"
         type="turbulence"
         baseFrequency="0.04"
         result="result91" />
      <feDisplacementMap
         id="feDisplacementMap4028"
         in2="result91"
         scale="6.6"
         yChannelSelector="G"
         xChannelSelector="R"
         in="SourceGraphic" />
    </filter>
    <filter
       id="filter4030"
       inkscape:label="Roughen"
       inkscape:menu="ABCs"
       inkscape:menu-tooltip="Small-scale roughening to edges and content"
       color-interpolation-filters="sRGB">
      <feTurbulence
         id="feTurbulence4032"
         numOctaves="3"
         seed="0"
         type="turbulence"
         baseFrequency="0.04"
         result="result91" />
      <feDisplacementMap
         id="feDisplacementMap4034"
         in2="result91"
         scale="6.6"
         yChannelSelector="G"
         xChannelSelector="R"
         in="SourceGraphic" />
    </filter>
    <filter
       id="filter4036"
       inkscape:label="Roughen"
       inkscape:menu="ABCs"
       inkscape:menu-tooltip="Small-scale roughening to edges and content"
       color-interpolation-filters="sRGB">
      <feTurbulence
         id="feTurbulence4038"
         numOctaves="3"
         seed="0"
         type="turbulence"
         baseFrequency="0.04"
         result="result91" />
      <feDisplacementMap
         id="feDisplacementMap4040"
         in2="result91"
         scale="6.6"
         yChannelSelector="G"
         xChannelSelector="R"
         in="SourceGraphic" />
    </filter>
    <filter
       id="filter4048"
       inkscape:label="Evanescent"
       inkscape:menu="Blurs"
       inkscape:menu-tooltip="Blur the contents of objects, preserving the outline and adding progressive transparency at edges"
       color-interpolation-filters="sRGB">
      <feGaussianBlur
         id="feGaussianBlur4050"
         result="result6"
         stdDeviation="3"
         in="SourceGraphic" />
      <feColorMatrix
         id="feColorMatrix4052"
         values="1 0 0 0 0 0 1 0 0 0 0 0 1 0 0 0 0 0 1 0 "
         result="result7"
         in="SourceGraphic" />
      <feComposite
         id="feComposite4054"
         in2="result7"
         operator="in"
         in="result6" />
    </filter>
    <filter
       id="filter4056"
       inkscape:label="Evanescent"
       inkscape:menu="Blurs"
       inkscape:menu-tooltip="Blur the contents of objects, preserving the outline and adding progressive transparency at edges"
       color-interpolation-filters="sRGB">
      <feGaussianBlur
         id="feGaussianBlur4058"
         result="result6"
         stdDeviation="3"
         in="SourceGraphic" />
      <feColorMatrix
         id="feColorMatrix4060"
         values="1 0 0 0 0 0 1 0 0 0 0 0 1 0 0 0 0 0 1 0 "
         result="result7"
         in="SourceGraphic" />
      <feComposite
         id="feComposite4062"
         in2="result7"
         operator="in"
         in="result6" />
    </filter>
    <filter
       id="filter4097"
       inkscape:label="Evanescent"
       inkscape:menu="Blurs"
       inkscape:menu-tooltip="Blur the contents of objects, preserving the outline and adding progressive transparency at edges"
       color-interpolation-filters="sRGB">
      <feGaussianBlur
         id="feGaussianBlur4099"
         result="result6"
         stdDeviation="3"
         in="SourceGraphic" />
      <feColorMatrix
         id="feColorMatrix4101"
         values="1 0 0 0 0 0 1 0 0 0 0 0 1 0 0 0 0 0 1 0 "
         result="result7"
         in="SourceGraphic" />
      <feComposite
         in2="result7"
         id="feComposite4103"
         operator="in"
         in="result6" />
    </filter>
    <filter
       id="filter4208"
       inkscape:label="Evanescent"
       inkscape:menu="Blurs"
       inkscape:menu-tooltip="Blur the contents of objects, preserving the outline and adding progressive transparency at edges"
       color-interpolation-filters="sRGB">
      <feGaussianBlur
         id="feGaussianBlur4210"
         result="result6"
         stdDeviation="3"
         in="SourceGraphic" />
      <feColorMatrix
         id="feColorMatrix4212"
         values="1 0 0 0 0 0 1 0 0 0 0 0 1 0 0 0 0 0 1 0 "
         result="result7"
         in="SourceGraphic" />
      <feComposite
         id="feComposite4214"
         in2="result7"
         operator="in"
         in="result6" />
    </filter>
    <filter
       id="filter4036-8"
       inkscape:label="Roughen"
       inkscape:menu="ABCs"
       inkscape:menu-tooltip="Small-scale roughening to edges and content"
       color-interpolation-filters="sRGB">
      <feTurbulence
         id="feTurbulence4038-1"
         numOctaves="3"
         seed="0"
         type="turbulence"
         baseFrequency="0.04"
         result="result91" />
      <feDisplacementMap
         id="feDisplacementMap4040-7"
         in2="result91"
         scale="6.6"
         yChannelSelector="G"
         xChannelSelector="R"
         in="SourceGraphic" />
    </filter>
  </defs>
  <g
     transform="translate(3486.6234,198.6293)"
     id="g2987">
    <path
       style="fill:#cecece;filter:url(#filter4097)"
       d="m 389.21875,5.4375 c -0.65164,0.01971 -1.33568,0.084795 -2.0625,0.1875 -7.79638,1.10168 -8.30282,7.09888 -0.6875,8.125 3.45361,0.46535 3.9812,1.01972 7.625,8 2.81799,5.39833 5.50446,13.5248 9.5625,29 3.10085,11.825 6.25729,22.5125 7.03125,23.75 l 1.40625,2.25 29.75,0 29.75,0 L 474.5,66 c 1.58499,-5.9125 3.66623,-13.45 4.65625,-16.75 4.76872,-15.89534 7.89753,-26.91497 7.125,-27.6875 -26.12393,-1.34476 -26.23893,-1.5992 -84.40625,-2.03125 -4.7e-4,1.16529 -1.65527,-4.9721 -2.9375,-7.5625 -2.33193,-4.71107 -5.15725,-6.6692162 -9.71875,-6.53125 z m 69.09375,76.15625 c -4.14211,0.379209 -7.10545,5.280716 -3.9375,8.78125 0.97543,1.07784 2.95799,1.9375 4.4375,1.9375 6.01752,0 7.91874,-7.71856 2.5,-10.1875 -1.02002,-0.464751 -2.04413,-0.61876 -3,-0.53125 z m -34.78125,0.4375 c -4.14211,0.379209 -7.10545,5.249466 -3.9375,8.75 0.97543,1.07784 2.98924,1.96875 4.46875,1.96875 6.01752,0 7.88749,-7.71856 2.46875,-10.1875 -1.02002,-0.464751 -2.04413,-0.61876 -3,-0.53125 z"
       transform="matrix(7.9954262,0,0,7.9954262,-3506.5141,-190.97902)"
       id="path3001"
       inkscape:connector-curvature="0" />
    <g
       transform="matrix(7.9954262,0,0,7.9954262,-3252.8615,1547.3336)"
       id="g3005">
      <path
         d="m 397.56786,-159.25387 -2.52641,-8.41386 1.93012,-6.25778 3.71435,-7.90477 6.8882,-2.50134 c 10.03912,-3.64554 11.57411,-3.23212 16.98751,2.00053 4.41504,4.26764 3.72417,4.9653 4.65883,13.83826 1.56141,14.82283 3.87208,10.50422 -5.918,13.49038 -4.71974,1.43961 -7.94932,3.52398 -8.26721,3.20609 2.08396,-2.10212 0.71946,-3.28254 2.47299,-7.76235 1.75352,-4.4798 3.60086,-9.72257 1.97784,-10.17899 -0.25054,-0.25053 -3.36142,4.04128 -5.31948,8.27923 -2.73774,5.92548 -2.14432,6.39737 -3.37094,5.92667 -0.87728,-0.33664 -1.86908,-0.40621 -2.45561,-0.40621 -0.71779,0 -1.52383,-0.60028 -0.72402,-5.94127 0.95692,-6.39011 0.42727,-11.01947 -2.458,-10.2646 -0.46766,0.12235 -1.17533,5.65311 -1.53761,10.46561 -0.36228,4.8125 0.0876,9.79458 -0.98976,9.1765 -3.12104,-1.79048 -4.1301,-3.64589 -5.0628,-6.7521 z"
         id="path2991"
         style="fill:#4f7800"
         inkscape:connector-curvature="0" />
      <path
         d="m 400.71141,-151.74689 c -2.02537,-2.51778 -7.23936,-13.74778 -7.23936,-15.59229 0,-1.04463 1.3918,-5.05041 3.09289,-8.90173 l 3.09289,-7.0024 8.75275,-2.62679 c 4.814,-1.44473 9.40162,-2.62679 10.1947,-2.62679 0.79307,0 3.56519,2.15565 6.16025,4.79033 l 4.7183,4.79033 0.96831,9.95967 c 0.53257,5.47782 0.97992,10.65442 0.99411,11.50355 0.0177,1.06219 -2.65085,2.41557 -8.55314,4.33773 -4.71841,1.53662 -8.82601,2.54678 -9.12799,2.2448 -0.30198,-0.30199 0.91614,-4.18387 2.70693,-8.62641 1.79079,-4.44254 2.98906,-8.34427 2.66282,-8.67051 -0.32623,-0.32624 -2.18071,2.89051 -4.12106,7.14832 -2.71024,5.94723 -3.07264,8.14918 -4.29313,7.68084 -0.87379,-0.33531 -2.8901,-1.15865 -3.47419,-1.15865 -0.71642,0 -0.84489,-2.6032 -0.39482,-8 0.39937,-4.78876 0.29063,-8 -0.2709,-8 -0.51594,0 -1.224,3.4875 -1.57347,7.75 -1.00573,12.26726 -1.74786,14.16752 -4.29589,11 z m 25.0284,-5.6617 c 2.26889,-0.86264 2.32787,-1.14879 1.59546,-7.74202 -0.41829,-3.76545 -0.79705,-7.97128 -0.84171,-9.34628 -0.0447,-1.375 -1.75526,-4.43391 -3.80135,-6.79758 l -3.72016,-4.29758 -8.51455,2.64185 -8.51455,2.64185 -2.67681,6.41119 -2.6768,6.41118 2.16526,4.74454 2.16526,4.74455 0.87619,-8.25 c 0.79768,-7.51077 1.06883,-8.24863 3.0261,-8.23469 4.26552,0.0304 4.96681,1.36007 4.82003,9.13911 l -0.13859,7.34558 3.52094,-6.79547 c 3.75905,-7.25502 5.72932,-8.8513 8.05478,-6.52584 1.26956,1.26956 1.19856,2.26131 -0.56464,7.88674 -1.10925,3.53901 -2.02262,6.82085 -2.02972,7.29298 -0.0131,0.8738 3.00629,0.34519 7.25486,-1.27011 z"
         id="path2989"
         style="fill:#090b07"
         inkscape:connector-curvature="0" />
    </g>
    <g
       style="font-size:103.9960556px;font-style:normal;font-variant:normal;font-weight:normal;font-stretch:normal;line-height:125%;letter-spacing:0px;word-spacing:0px;fill:#ffffff;fill-opacity:1;stroke:none;font-family:Comfortaa;-inkscape-font-specification:Comfortaa"
       id="text3045"
       transform="matrix(7.9954262,0,0,7.9954262,-3403.8971,1574.1381)">
      <path
         d="m -6.6905885,-221.72269 0.9648072,0.20312 9.8004095,0 2.1327316,-0.20312 c 10.9344512,7e-5 20.4301752,4.7564 28.4872012,14.26899 5.145585,6.66907 7.718401,14.23518 7.718457,22.69836 -5.6e-5,11.64542 -5.128762,21.46274 -15.386135,29.45201 -6.499787,4.50243 -13.371916,6.75365 -20.6164059,6.75365 l -13.1010656,0 c -2.4374115,-0.44009 -3.6561145,-1.65879 -3.6561115,-3.65611 l 0,-65.65767 c 0.3723788,-2.43734 1.5910813,-3.65604 3.6561115,-3.65611 l 0,-0.20312 m 3.8592287,7.51534 0,58.14233 8.2770298,0 c 12.22086,0 21.276497,-5.90732 27.166938,-17.72199 1.523333,-4.02846 2.285022,-7.87076 2.28507,-11.5269 -4.8e-5,-8.83556 -3.910052,-16.53708 -11.730024,-23.1046 -4.840994,-3.85916 -12.034724,-5.78877 -21.5812126,-5.78884 l -4.4178012,0"
         id="path3907"
         inkscape:connector-curvature="0" />
      <path
         d="m 75.724254,-200.49693 c 9.817298,5e-5 17.586527,4.80716 23.30771,14.42133 1.760296,3.89311 2.640466,7.93853 2.640526,12.13626 l 0,21.98744 c -6e-5,1.86191 -1.20183,2.99598 -3.605334,3.40222 l -0.203117,0 c -1.624987,0 -2.826763,-0.94788 -3.605332,-2.84364 l 0,-0.20312 0.203117,-4.72248 0,-0.20312 c -5.585767,5.31491 -11.594647,7.97236 -18.02666,7.97236 l -1.4726,0 c -8.801768,0 -16.147836,-4.4178 -22.038227,-13.25341 -2.132734,-4.26544 -3.199099,-8.56475 -3.199097,-12.89794 -2e-6,-9.64804 4.739397,-17.29878 14.218211,-22.95226 4.028472,-1.89571 7.955403,-2.84359 11.780803,-2.84364 m -18.585233,25.59278 0,0.55857 c -9e-6,7.54921 3.79151,13.23649 11.374569,17.06185 2.403531,0.88019 4.553187,1.32027 6.448974,1.32027 l 1.4726,0 c 6.296601,0 11.493014,-3.14831 15.589253,-9.44496 1.489481,-2.97903 2.234243,-5.82267 2.23429,-8.53092 l 0,-0.76169 c -4.7e-5,-7.27834 -3.588449,-12.84713 -10.765217,-16.7064 -2.505146,-1.1171 -5.094889,-1.67568 -7.769236,-1.67572 l -0.203117,0 c -7.650772,4e-5 -13.405757,3.97775 -17.264971,11.93314 -0.744773,2.47129 -1.117154,4.55324 -1.117145,6.24586"
         id="path3909"
         inkscape:connector-curvature="0" />
      <path
         d="m 114.1642,-199.63368 c 1.52337,5e-5 3.45299,1.79425 5.78884,5.38261 6.36433,7.61693 10.22355,12.40711 11.57769,14.37054 l 0.20312,0 c 1.08327,-1.08326 6.17812,-7.36296 15.28457,-18.83912 0.44005,-0.40619 1.23559,-0.71086 2.38663,-0.91403 2.36966,0.57555 3.55451,1.62499 3.55456,3.14832 l 0,1.11714 c -5e-5,0.77866 -2.23434,3.77464 -6.70288,8.98794 l -9.90196,12.49171 c 11.06985,13.3042 16.60479,20.26096 16.60484,20.87031 l 0,1.11714 c -5e-5,1.82806 -1.1849,2.9452 -3.55456,3.35144 l -0.15234,0 c -1.45571,0 -3.08065,-1.42182 -4.87481,-4.26547 l -12.64405,-15.48769 c -9.95276,12.42402 -15.18303,18.8222 -15.69081,19.19458 -0.60936,0.37239 -1.23564,0.55858 -1.87884,0.55858 l -0.15234,0 c -1.99732,0 -3.18217,-1.30334 -3.55455,-3.91001 0,-0.98173 2.3697,-4.14697 7.10911,-9.49573 l 9.49573,-12.13626 -16.24938,-20.31173 -0.35546,-1.52338 c 0.50779,-2.47121 1.74342,-3.70684 3.70689,-3.70689"
         id="path3911"
         inkscape:connector-curvature="0" />
      <path
         d="m 221.86714,-221.41801 c 12.28855,7e-5 22.56289,5.68735 30.82305,17.06185 3.72375,6.46595 5.58566,12.98262 5.58573,19.55004 -7e-5,12.15321 -5.50116,22.25828 -16.50328,30.31526 -6.22898,3.96079 -12.74566,5.94118 -19.55004,5.94118 l -0.76169,0 c -12.52559,0 -22.74915,-5.82269 -30.67071,-17.46809 -3.58841,-5.89038 -5.38261,-12.27164 -5.38261,-19.14381 0,-11.61149 5.11178,-21.39496 15.33536,-29.35044 6.63514,-4.60393 13.67653,-6.90592 21.12419,-6.90599 m -28.99499,36.81501 c -1e-5,9.27571 4.09619,17.0788 12.2886,23.40927 5.11176,3.453 10.54514,5.17949 16.30016,5.17949 l 0.96481,0 c 9.07252,0 16.74019,-4.02848 23.00303,-12.08548 3.58834,-5.17947 5.38254,-10.81597 5.38261,-16.90952 -7e-5,-10.46049 -4.79025,-18.75444 -14.37055,-24.88187 -4.73945,-2.70816 -9.59733,-4.06228 -14.57367,-4.06234 -9.58039,6e-5 -17.51888,4.16396 -23.8155,12.49171 -3.453,4.97642 -5.1795,10.596 -5.17949,16.85874"
         id="path3913"
         inkscape:connector-curvature="0" />
      <path
         d="m 287.11858,-200.19226 c 8.70016,6e-5 15.53844,3.94391 20.51485,11.83159 l 0.15234,1.4726 0,0.20312 c -5e-5,1.99735 -1.2526,3.1822 -3.75767,3.55455 -1.65883,3e-5 -3.35147,-1.43871 -5.07793,-4.31624 -3.48688,-3.38525 -7.43074,-5.07789 -11.83159,-5.07794 -5.78886,5e-5 -10.35899,2.75905 -13.71041,8.27703 l -0.15234,0.96481 c -10e-6,1.65882 1.87882,2.65748 5.6365,2.99598 14.4213,3.48688 22.30902,5.48419 23.66317,5.99196 3.62221,2.36973 5.43334,5.38263 5.43339,9.03872 l 0,0.15234 c -5e-5,5.21335 -3.82542,9.9866 -11.47613,14.31977 -3.28376,1.48952 -6.78753,2.23429 -10.51132,2.23429 -7.61691,0 -14.06588,-3.57148 -19.34692,-10.71444 -0.5078,-0.74475 -0.7617,-1.43874 -0.76169,-2.08195 l 0,-1.11715 c -1e-5,-1.82804 1.38796,-2.8944 4.1639,-3.19909 1.18484,1e-5 2.87749,1.57417 5.07793,4.72247 3.35142,3.11448 7.22758,4.67171 11.62847,4.6717 5.28102,10e-6 9.66496,-2.5051 13.15184,-7.51534 l 0.35546,-1.11714 0,-0.20312 c -4e-5,-1.62492 -1.11718,-2.55588 -3.35144,-2.79287 -16.8249,-3.75764 -25.72819,-6.07656 -26.70992,-6.95676 -3.11447,-2.36968 -4.6717,-5.24717 -4.6717,-8.63249 0,-4.73936 3.43606,-9.3095 10.3082,-13.71042 3.79151,-1.99726 7.54918,-2.99592 11.27301,-2.99598"
         id="path3915"
         inkscape:connector-curvature="0" />
    </g>
    <g
       style="font-size:100.10856628px;font-style:normal;font-variant:normal;font-weight:normal;font-stretch:normal;line-height:125%;letter-spacing:0px;word-spacing:0px;fill:#ffffff;fill-opacity:1;stroke:none;font-family:Comfortaa;-inkscape-font-specification:Comfortaa"
       id="text3049"
       transform="matrix(7.9954262,0,0,7.9954262,-3403.8971,1574.1381)">
      <path
         d="m 162.32457,-142.29188 c 6.06124,7e-5 11.11228,2.73741 15.15316,8.21203 l 0.19552,0.7821 0,1.12426 c -4e-5,1.59684 -1.18948,2.59076 -3.56832,2.98175 -0.97766,6e-5 -2.65591,-1.31973 -5.03476,-3.95937 -2.1508,-1.36861 -4.2038,-2.05294 -6.15902,-2.05301 l -1.12427,0 c -4.10603,7e-5 -7.21813,2.18342 -9.3363,6.55007 -0.48882,1.04286 -0.73322,2.10195 -0.73321,3.17728 l 0,1.51531 c -10e-6,4.72523 2.85138,8.1469 8.5542,10.26504 4.10599,4e-5 8.53787,1.9227 13.29566,5.76798 4.59479,4.66003 6.8922,9.776249 6.89224,15.348673 -4e-5,6.843372 -2.9329,12.448404 -8.7986,16.81511 -3.58464,2.476646 -7.56031,3.714967 -11.927,3.714967 -7.07148,0 -12.92092,-3.046921 -17.54832,-9.140773 l -0.39105,-1.515315 c 0.42363,-2.346281 1.61307,-3.519427 3.56832,-3.519442 1.30349,1.5e-5 2.98174,1.30351 5.03476,3.910491 3.0632,2.118191 5.86572,3.177281 8.40755,3.177274 l 1.66196,0 c 4.95326,7e-6 8.94522,-2.802509 11.97588,-8.407555 0.48878,-1.824879 0.73318,-3.193549 0.73322,-4.106016 l 0,-1.857483 c -4e-5,-4.920675 -2.80255,-8.912631 -8.40756,-11.975881 l -9.53182,-2.63958 c -7.10407,-4.07339 -10.65609,-9.41772 -10.65609,-16.03301 l 0,-1.31979 c 0,-6.51743 3.48685,-11.61735 10.46056,-15.2998 2.60698,-1.01014 5.03474,-1.51524 7.28329,-1.51531"
         id="path3896"
         inkscape:connector-curvature="0" />
      <path
         d="m 198.69214,-139.99447 0.68433,0 c 2.15076,0.45629 3.22614,1.41762 3.22616,2.88399 l 0,16.13077 7.38105,0 1.61308,-0.19552 c 1.66193,5e-5 2.78619,1.20578 3.3728,3.6172 -3e-5,1.62942 -1.01024,2.81886 -3.03063,3.56833 l -2.68847,-0.19553 -6.64783,0 0,26.346933 c -2e-5,4.594838 1.499,7.413647 4.49706,8.456436 l 4.10602,0.342168 2.00413,0 c 1.56416,7e-6 2.57437,1.140566 3.03063,3.42168 l 0,0.146643 c -0.39108,2.281121 -1.53164,3.42168 -3.42168,3.42168 l -3.76385,0 c -5.70282,0 -9.93918,-3.112096 -12.7091,-9.336297 -0.48882,-1.531598 -0.73322,-3.323905 -0.73321,-5.376925 l 0,-27.422318 -3.56833,0 -2.88398,0.19553 c -2.02042,-0.71689 -3.03063,-1.90633 -3.03063,-3.56833 0.39105,-2.28107 1.46643,-3.42163 3.22615,-3.42168 l 0,-0.19552 1.8086,0.19552 4.44819,0 0,-15.05539 c 0.29327,-2.63951 1.31978,-3.9593 3.07951,-3.95937"
         id="path3898"
         inkscape:connector-curvature="0" />
      <path
         d="m 246.64454,-121.81069 c 6.41969,5e-5 12.23654,2.42781 17.45056,7.28329 4.95324,5.21403 7.42988,11.07976 7.42993,17.597212 -5e-5,9.320018 -4.41564,16.652181 -13.24678,21.996511 -3.81277,1.922659 -7.51144,2.883987 -11.09602,2.883987 l -1.46644,0 c -6.68044,0 -12.90463,-3.144684 -18.67259,-9.434059 -3.51944,-4.985862 -5.27916,-10.13467 -5.27916,-15.446439 0,-8.081652 3.56832,-14.859822 10.70497,-20.334552 4.56222,-3.03058 9.28739,-4.5459 14.17553,-4.54595 m -17.59721,24.342809 0,0.879861 c -10e-6,6.647852 3.20985,11.79666 9.62958,15.446438 2.31369,1.205743 4.79033,1.80861 7.42993,1.808603 l 1.07539,0 c 6.87591,7e-6 12.13877,-3.568313 15.78861,-10.704969 0.84722,-2.248512 1.27086,-4.431867 1.27091,-6.550072 l 0,-0.879861 c -5e-5,-5.539829 -2.54187,-10.199829 -7.62546,-13.980009 -2.96549,-2.05296 -6.35458,-3.07946 -10.16728,-3.07951 -7.52771,5e-5 -13.03498,3.92683 -16.52182,11.78036 -0.58659,1.92268 -0.87987,3.682402 -0.87986,5.279159"
         id="path3900"
         inkscape:connector-curvature="0" />
      <path
         d="m 285.70057,-122.44614 c 2.34628,0.58662 3.51943,1.62942 3.51944,3.12839 l 0,4.05714 c 5.37691,-4.79031 11.12858,-7.18548 17.25504,-7.18553 3.2913,5e-5 6.79444,0.79844 10.50945,2.39517 0.97758,1.01026 1.46639,1.98788 1.46643,2.93287 l 0,0.19553 c -0.39109,2.31375 -1.54794,3.4706 -3.47056,3.47056 l -0.19553,0 c -3.35653,-1.07534 -5.88206,-1.61304 -7.57657,-1.61308 l -1.07539,0 c -7.20184,4e-5 -12.481,3.7313 -15.83748,11.19378 -0.71694,1.98786 -1.0754,4.252687 -1.07539,6.794478 l 0,21.703225 c -10e-6,1.824897 -1.17316,2.932868 -3.51944,3.323917 l -0.19553,0 c -1.85749,0 -3.01434,-1.222027 -3.47056,-3.666085 l 0,-42.477705 c 0.29329,-2.83506 1.51531,-4.25261 3.66609,-4.25266"
         id="path3902"
         inkscape:connector-curvature="0" />
      <path
         d="m 348.90388,-122.15285 c 9.64584,5e-5 17.14094,4.57857 22.48532,13.73559 1.82484,3.58465 2.73729,7.47885 2.73734,11.682596 l 0,0.928742 c -0.42369,2.444078 -1.58054,3.666105 -3.47056,3.666085 l -38.56721,0 c 1.43383,4.855541 4.52963,8.570504 9.28741,11.144899 2.8025,1.075393 5.42578,1.613085 7.86986,1.613077 2.83508,8e-6 6.07753,-0.912439 9.72735,-2.737343 l 1.07539,0 c 2.18331,0.423646 3.27499,1.531617 3.27503,3.323917 l 0,0.537692 c -4e-5,2.998047 -4.38304,5.067346 -13.14902,6.207905 l -1.27091,0 c -8.99415,0 -16.19596,-4.203774 -21.60547,-12.611333 -2.18336,-3.975649 -3.27503,-8.130542 -3.27503,-12.46469 0,-9.157027 4.33412,-16.456607 13.00238,-21.898747 4.20376,-2.08555 8.16313,-3.12834 11.87812,-3.12839 m -17.40169,22.876367 35.14554,0 c -5e-5,-2.509197 -1.46648,-5.751647 -4.3993,-9.727347 -4.00829,-3.7801 -7.96766,-5.67017 -11.87812,-5.67021 l -2.00413,0 c -5.86575,4e-5 -10.68869,2.86773 -14.46881,8.60308 -1.30351,2.28115 -2.1019,4.54597 -2.39518,6.794477"
         id="path3904"
         inkscape:connector-curvature="0" />
    </g>
    <g
       transform="matrix(1.2791206,-0.46683306,0.25178656,0.68989407,0,0)"
       style="font-size:178.59382629px;font-style:normal;font-variant:normal;font-weight:normal;font-stretch:normal;line-height:125%;letter-spacing:0px;word-spacing:0px;fill:#800000;fill-opacity:1;stroke:none;filter:url(#filter3012);font-family:Comfortaa;-inkscape-font-specification:Comfortaa"
       id="text3053" />
    <g
       id="g4042"
       transform="matrix(7.6722273,0,0,7.6722273,-3550.0436,1508.9461)"
       style="filter:url(#filter4208)">
      <g
         id="g3301"
         transform="translate(10.944531,-13.824671)">
        <g
           transform="matrix(0.80591594,-0.3578095,0.22065279,0.49698962,258.66208,-132.87775)"
           style="font-size:302.59637451px;font-style:normal;font-variant:normal;font-weight:normal;font-stretch:normal;line-height:125%;letter-spacing:0px;word-spacing:0px;fill:#800000;fill-opacity:1;stroke:none;filter:url(#filter4030);font-family:Comfortaa;-inkscape-font-specification:Comfortaa"
           id="text3801">
          <text
             transform="matrix(0.13509901,0.09726503,-0.05998108,0.2190759,-218.2645,-337.60295)"
             sodipodi:linespacing="125%"
             id="text3057"
             y="1536.9946"
             x="857.36694"
             style="font-size:40px;font-style:normal;font-variant:normal;font-weight:500;font-stretch:normal;line-height:125%;letter-spacing:0px;word-spacing:0px;fill:#000000;fill-opacity:1;stroke:none;font-family:AlphavilleMedium;-inkscape-font-specification:AlphavilleMedium Medium"
             xml:space="preserve"><tspan
               y="1536.9946"
               x="857.36694"
               id="tspan3059"
               sodipodi:role="line" /></text>
          <g
             style="fill:#800000"
             transform="matrix(0.32018221,-0.06163927,0.03801151,0.51920592,-19.408787,-252.3608)"
             id="layer1">
            <path
               inkscape:connector-curvature="0"
               d="m 402.72333,925.91455 -32.22656,0 c 4.68747,-22.00527 7.03122,-41.92713 7.03125,-59.76562 l 0,-212.69532 c -3e-5,-22.1352 1.95309,-38.60654 5.85937,-49.41406 4.03642,-10.80704 11.78381,-20.31224 23.24219,-28.51562 11.58847,-8.33306 26.04158,-12.49973 43.35937,-12.5 20.5728,2.7e-4 37.82538,5.46902 51.75782,16.40625 14.06233,10.80754 21.09357,26.23721 21.09375,46.28906 -1.8e-4,23.43769 -11.13298,42.6434 -33.39844,57.61719 33.20295,15.62514 49.80449,40.16938 49.80469,73.63281 -2e-4,18.22923 -4.42727,34.57036 -13.28125,49.02344 -8.72413,14.32293 -18.88037,24.54428 -30.46875,30.66406 -11.45847,6.11979 -25.19544,9.17968 -41.21094,9.17969 -18.22926,-10e-6 -33.07299,-6.83594 -44.53125,-20.50782 l 0,36.32813 c -6e-5,24.99995 -2.34381,46.4192 -7.03125,64.25781 m 7.03125,-118.16406 c 10.15618,16.79689 24.34887,25.19532 42.57812,25.19531 17.57801,1e-5 30.46862,-6.38019 38.67188,-19.14062 8.20297,-12.89059 12.30453,-28.51557 12.30469,-46.875 -1.6e-4,-14.06242 -2.73453,-28.38532 -8.20313,-42.96875 -5.33868,-14.71341 -12.23972,-25.91132 -20.70312,-33.59375 -7.81262,1.95327 -14.84387,2.92983 -21.09375,2.92968 -13.15114,1.5e-4 -19.72665,-3.45037 -19.72657,-10.35156 -8e-5,-6.24984 5.53377,-9.37483 16.60157,-9.375 6.90093,1.7e-4 15.49467,1.56267 25.78125,4.6875 9.24465,-15.62482 13.86704,-32.61699 13.86718,-50.97656 -1.4e-4,-16.40602 -3.64597,-28.97111 -10.9375,-37.69531 -7.16158,-8.7237 -16.53657,-13.08568 -28.125,-13.08594 -9.24488,2.6e-4 -17.18758,2.60443 -23.82812,7.8125 -6.51049,5.20858 -11.00267,11.45858 -13.47656,18.75 -2.47403,7.16169 -3.711,18.94553 -3.71094,35.35156 l 0,169.33594"
               id="text5540"
               style="font-size:400px;font-style:normal;font-weight:normal;text-align:start;text-anchor:start;fill:#800000;fill-opacity:1;stroke:none;font-family:Times New Roman" />
          </g>
        </g>
        <path
           sodipodi:nodetypes="ccccccccc"
           style="font-size:medium;font-style:normal;font-variant:normal;font-weight:normal;font-stretch:normal;text-indent:0;text-align:start;text-decoration:none;line-height:normal;letter-spacing:normal;word-spacing:normal;text-transform:none;direction:ltr;block-progression:tb;writing-mode:lr-tb;text-anchor:start;baseline-shift:baseline;color:#000000;fill:#800000;fill-opacity:1;fill-rule:nonzero;stroke:none;stroke-width:12.7485981;marker:none;visibility:visible;display:inline;overflow:visible;filter:url(#filter4036);enable-background:accumulate;font-family:Sans;-inkscape-font-specification:Sans"
           d="m 266.20784,-196.8309 0,12.75 6.375,0 103.27782,-1.06918 c 0,0 10.35009,13.59713 6.375,0 l 0,-12.75 -6.375,0 -103.27782,1.06918 z"
           id="path3805"
           inkscape:connector-curvature="0"
           transform="matrix(0.63287586,-0.28098338,0.28098338,0.63287586,218.72049,23.427177)" />
        <path
           sodipodi:nodetypes="ccccccccc"
           style="font-size:medium;font-style:normal;font-variant:normal;font-weight:normal;font-stretch:normal;text-indent:0;text-align:start;text-decoration:none;line-height:normal;letter-spacing:normal;word-spacing:normal;text-transform:none;direction:ltr;block-progression:tb;writing-mode:lr-tb;text-anchor:start;baseline-shift:baseline;color:#000000;fill:#800000;fill-opacity:1;fill-rule:nonzero;stroke:none;stroke-width:12.7485981;marker:none;visibility:visible;display:inline;overflow:visible;filter:url(#filter4036-8);enable-background:accumulate;font-family:Sans;-inkscape-font-specification:Sans"
           d="m 266.20784,-196.8309 0,12.75 6.375,0 103.27782,-1.06918 c 0,0 10.35009,13.59713 6.375,0 l 0,-12.75 -6.375,0 -103.27782,1.06918 z"
           id="path3805-9"
           inkscape:connector-curvature="0"
           transform="matrix(-0.63287587,0.28098339,-0.28098339,-0.63287587,584.77503,-291.23452)" />
      </g>
    </g>
  </g>
</svg>
