<?xml version="1.0" encoding="UTF-8" standalone="no"?>
<!-- Created with Inkscape (http://www.inkscape.org/) -->

<svg
   xmlns:dc="http://purl.org/dc/elements/1.1/"
   xmlns:cc="http://creativecommons.org/ns#"
   xmlns:rdf="http://www.w3.org/1999/02/22-rdf-syntax-ns#"
   xmlns:svg="http://www.w3.org/2000/svg"
   xmlns="http://www.w3.org/2000/svg"
   version="1.1"
   width="492.67654"
   height="150.07478"
   id="svg2">
  <metadata
     id="metadata8">
    <rdf:RDF>
      <cc:Work
         rdf:about="">
        <dc:format>image/svg+xml</dc:format>
        <dc:type
           rdf:resource="http://purl.org/dc/dcmitype/StillImage" />
        <dc:title></dc:title>
      </cc:Work>
    </rdf:RDF>
  </metadata>
  <defs
     id="defs6" />
  <g
     transform="translate(10.3467,221.72269)"
     id="g2987">
    <path
       d="m 409.77983,-129.5794 c -3.89901,-4.30835 1.49585,-10.71348 6.93594,-8.23481 5.41874,2.46894 3.54511,10.19452 -2.47241,10.19452 -1.47951,0 -3.4881,-0.88187 -4.46353,-1.95971 z m -8.89756,-16.29029 c -0.77396,-1.2375 -3.94426,-11.925 -7.04511,-23.75 -4.05804,-15.4752 -6.73502,-23.60167 -9.55301,-29 -3.6438,-6.98028 -4.17223,-7.53465 -7.62584,-8 -7.61532,-1.02612 -7.10538,-7.01923 0.691,-8.12091 5.81453,-0.82164 9.10484,0.94872 11.7699,6.3328 1.28223,2.5904 2.94638,8.73986 2.94685,7.57457 58.16732,0.43205 58.28209,0.67808 84.40602,2.02284 0.77253,0.77253 -2.33741,11.79541 -7.10613,27.69075 -0.99002,3.3 -3.09686,10.8375 -4.68185,16.75 l -2.88181,10.75 -29.75641,0 -29.75641,0 -1.4072,-2.25 z"
       id="path3001"
       style="fill:#cecece" />
    <g
       transform="translate(19.655279,-3.3524839)"
       id="g3005">
      <path
         d="m 397.56786,-159.25387 -2.52641,-8.41386 1.93012,-6.25778 3.71435,-7.90477 6.8882,-2.50134 c 10.03912,-3.64554 11.57411,-3.23212 16.98751,2.00053 4.41504,4.26764 3.72417,4.9653 4.65883,13.83826 1.56141,14.82283 3.87208,10.50422 -5.918,13.49038 -4.71974,1.43961 -7.94932,3.52398 -8.26721,3.20609 2.08396,-2.10212 0.71946,-3.28254 2.47299,-7.76235 1.75352,-4.4798 3.60086,-9.72257 1.97784,-10.17899 -0.25054,-0.25053 -3.36142,4.04128 -5.31948,8.27923 -2.73774,5.92548 -2.14432,6.39737 -3.37094,5.92667 -0.87728,-0.33664 -1.86908,-0.40621 -2.45561,-0.40621 -0.71779,0 -1.52383,-0.60028 -0.72402,-5.94127 0.95692,-6.39011 0.42727,-11.01947 -2.458,-10.2646 -0.46766,0.12235 -1.17533,5.65311 -1.53761,10.46561 -0.36228,4.8125 0.0876,9.79458 -0.98976,9.1765 -3.12104,-1.79048 -4.1301,-3.64589 -5.0628,-6.7521 z"
         id="path2991"
         style="fill:#4f7800" />
      <path
         d="m 400.71141,-151.74689 c -2.02537,-2.51778 -7.23936,-13.74778 -7.23936,-15.59229 0,-1.04463 1.3918,-5.05041 3.09289,-8.90173 l 3.09289,-7.0024 8.75275,-2.62679 c 4.814,-1.44473 9.40162,-2.62679 10.1947,-2.62679 0.79307,0 3.56519,2.15565 6.16025,4.79033 l 4.7183,4.79033 0.96831,9.95967 c 0.53257,5.47782 0.97992,10.65442 0.99411,11.50355 0.0177,1.06219 -2.65085,2.41557 -8.55314,4.33773 -4.71841,1.53662 -8.82601,2.54678 -9.12799,2.2448 -0.30198,-0.30199 0.91614,-4.18387 2.70693,-8.62641 1.79079,-4.44254 2.98906,-8.34427 2.66282,-8.67051 -0.32623,-0.32624 -2.18071,2.89051 -4.12106,7.14832 -2.71024,5.94723 -3.07264,8.14918 -4.29313,7.68084 -0.87379,-0.33531 -2.8901,-1.15865 -3.47419,-1.15865 -0.71642,0 -0.84489,-2.6032 -0.39482,-8 0.39937,-4.78876 0.29063,-8 -0.2709,-8 -0.51594,0 -1.224,3.4875 -1.57347,7.75 -1.00573,12.26726 -1.74786,14.16752 -4.29589,11 z m 25.0284,-5.6617 c 2.26889,-0.86264 2.32787,-1.14879 1.59546,-7.74202 -0.41829,-3.76545 -0.79705,-7.97128 -0.84171,-9.34628 -0.0447,-1.375 -1.75526,-4.43391 -3.80135,-6.79758 l -3.72016,-4.29758 -8.51455,2.64185 -8.51455,2.64185 -2.67681,6.41119 -2.6768,6.41118 2.16526,4.74454 2.16526,4.74455 0.87619,-8.25 c 0.79768,-7.51077 1.06883,-8.24863 3.0261,-8.23469 4.26552,0.0304 4.96681,1.36007 4.82003,9.13911 l -0.13859,7.34558 3.52094,-6.79547 c 3.75905,-7.25502 5.72932,-8.8513 8.05478,-6.52584 1.26956,1.26956 1.19856,2.26131 -0.56464,7.88674 -1.10925,3.53901 -2.02262,6.82085 -2.02972,7.29298 -0.0131,0.8738 3.00629,0.34519 7.25486,-1.27011 z"
         id="path2989"
         style="fill:#090b07" />
    </g>
    <path
       d="m 443.47477,-128.38555 c -3.89901,-4.30835 1.49585,-10.71348 6.93594,-8.23481 5.41874,2.46894 3.54511,10.19452 -2.47241,10.19452 -1.47951,0 -3.4881,-0.88187 -4.46353,-1.95971 z"
       id="path3001-1"
       style="fill:#cecece" />
    <text
       x="-13.139563"
       y="-148.54968"
       id="text3045"
       xml:space="preserve"
       style="font-size:103.9960556px;font-style:normal;font-variant:normal;font-weight:normal;font-stretch:normal;line-height:125%;letter-spacing:0px;word-spacing:0px;fill:#ffffff;fill-opacity:1;stroke:none;font-family:Comfortaa;-inkscape-font-specification:Comfortaa"><tspan
         x="-13.139563"
         y="-148.54968"
         id="tspan3047">Dax Os</tspan></text>
    <text
       x="140.13254"
       y="-72.04969"
       id="text3049"
       xml:space="preserve"
       style="font-size:100.10856628px;font-style:normal;font-variant:normal;font-weight:normal;font-stretch:normal;line-height:125%;letter-spacing:0px;word-spacing:0px;fill:#ffffff;fill-opacity:1;stroke:none;font-family:Comfortaa;-inkscape-font-specification:Comfortaa"><tspan
         x="140.13254"
         y="-72.04969"
         id="tspan3051">Store</tspan></text>
    <text
       x="253.29198"
       y="72.030365"
       transform="matrix(1.2791206,-0.46683306,0.25178656,0.68989407,0,0)"
       id="text3053"
       xml:space="preserve"
       style="font-size:178.59382629px;font-style:normal;font-variant:normal;font-weight:normal;font-stretch:normal;line-height:125%;letter-spacing:0px;word-spacing:0px;fill:#000000;fill-opacity:1;stroke:none;font-family:Comfortaa;-inkscape-font-specification:Comfortaa"><tspan
         x="253.29198"
         y="72.030365"
         id="tspan3055"
         style="font-style:normal;font-variant:normal;font-weight:normal;font-stretch:normal;fill:#b3b3b3;font-family:Gruppo;-inkscape-font-specification:Gruppo">α</tspan></text>
  </g>
</svg>
