<?xml version="1.0" encoding="UTF-8" standalone="no"?>
<!-- Created with Inkscape (http://www.inkscape.org/) -->

<svg
   xmlns:dc="http://purl.org/dc/elements/1.1/"
   xmlns:cc="http://creativecommons.org/ns#"
   xmlns:rdf="http://www.w3.org/1999/02/22-rdf-syntax-ns#"
   xmlns:svg="http://www.w3.org/2000/svg"
   xmlns="http://www.w3.org/2000/svg"
   xmlns:xlink="http://www.w3.org/1999/xlink"
   version="1.0"
   width="61.187496"
   height="61.187504"
   id="svg2408">
  <defs
     id="defs2410">
    <linearGradient
       x1="45.447727"
       y1="92.539597"
       x2="45.447727"
       y2="7.0165396"
       id="ButtonShadow"
       gradientUnits="userSpaceOnUse"
       gradientTransform="scale(1.0058652,0.994169)">
      <stop
         id="stop3750"
         style="stop-color:#000000;stop-opacity:1"
         offset="0" />
      <stop
         id="stop3752"
         style="stop-color:#000000;stop-opacity:0.58823532"
         offset="1" />
    </linearGradient>
    <linearGradient
       id="linearGradient3737">
      <stop
         id="stop3739"
         style="stop-color:#ffffff;stop-opacity:1"
         offset="0" />
      <stop
         id="stop3741"
         style="stop-color:#ffffff;stop-opacity:0"
         offset="1" />
    </linearGradient>
    <filter
       color-interpolation-filters="sRGB"
       id="filter3174">
      <feGaussianBlur
         stdDeviation="1.71"
         id="feGaussianBlur3176" />
    </filter>
    <linearGradient
       x1="36.357143"
       y1="6"
       x2="36.357143"
       y2="63.893143"
       id="linearGradient3188"
       xlink:href="#linearGradient3737"
       gradientUnits="userSpaceOnUse" />
    <filter
       x="-0.192"
       y="-0.192"
       width="1.3839999"
       height="1.3839999"
       color-interpolation-filters="sRGB"
       id="filter3794">
      <feGaussianBlur
         stdDeviation="5.28"
         id="feGaussianBlur3796" />
    </filter>
    <radialGradient
       cx="48"
       cy="90.171875"
       r="42"
       fx="48"
       fy="90.171875"
       id="radialGradient3619"
       xlink:href="#linearGradient3737"
       gradientUnits="userSpaceOnUse"
       gradientTransform="matrix(1.1573129,0,0,0.99590774,-7.5510206,0.19713193)" />
    <clipPath
       id="clipPath3613">
      <rect
         width="84"
         height="84"
         rx="6"
         ry="6"
         x="6"
         y="6"
         id="rect3615"
         style="fill:#ffffff;fill-opacity:1;fill-rule:nonzero;stroke:none" />
    </clipPath>
    <linearGradient
       x1="48"
       y1="90"
       x2="48"
       y2="5.9877172"
       id="linearGradient3617"
       xlink:href="#ButtonColor-7"
       gradientUnits="userSpaceOnUse" />
    <linearGradient
       x1="10.31979"
       y1="21"
       x2="10.31979"
       y2="0.99929649"
       id="ButtonColor-7"
       gradientUnits="userSpaceOnUse">
      <stop
         id="stop3189"
         style="stop-color:#787878;stop-opacity:1"
         offset="0" />
      <stop
         id="stop3191"
         style="stop-color:#b4b4b4;stop-opacity:1"
         offset="1" />
    </linearGradient>
    <linearGradient
       x1="45.447727"
       y1="92.539597"
       x2="45.447727"
       y2="7.0165396"
       id="ButtonShadow-0"
       gradientUnits="userSpaceOnUse"
       gradientTransform="matrix(1.0058652,0,0,0.994169,100,0)">
      <stop
         id="stop3750-8"
         style="stop-color:#000000;stop-opacity:1"
         offset="0" />
      <stop
         id="stop3752-5"
         style="stop-color:#000000;stop-opacity:0.58823532"
         offset="1" />
    </linearGradient>
    <linearGradient
       x1="32.251034"
       y1="6.1317081"
       x2="32.251034"
       y2="90.238609"
       id="linearGradient3780"
       xlink:href="#ButtonShadow-0"
       gradientUnits="userSpaceOnUse"
       gradientTransform="matrix(1.0238095,0,0,1.0119048,-1.1428571,-98.071429)" />
    <linearGradient
       x1="32.251034"
       y1="6.1317081"
       x2="32.251034"
       y2="90.238609"
       id="linearGradient3772"
       xlink:href="#ButtonShadow-0"
       gradientUnits="userSpaceOnUse"
       gradientTransform="matrix(1.0238095,0,0,1.0119048,-1.1428571,-98.071429)" />
    <linearGradient
       x1="32.251034"
       y1="6.1317081"
       x2="32.251034"
       y2="90.238609"
       id="linearGradient3725"
       xlink:href="#ButtonShadow-0"
       gradientUnits="userSpaceOnUse"
       gradientTransform="matrix(1.0238095,0,0,1.0119048,-1.1428571,-98.071429)" />
    <linearGradient
       x1="32.251034"
       y1="6.1317081"
       x2="32.251034"
       y2="90.238609"
       id="linearGradient3721"
       xlink:href="#ButtonShadow-0"
       gradientUnits="userSpaceOnUse"
       gradientTransform="translate(0,-97)" />
    <linearGradient
       x1="32.251034"
       y1="6.1317081"
       x2="32.251034"
       y2="90.238609"
       id="linearGradient3059"
       xlink:href="#ButtonShadow-0"
       gradientUnits="userSpaceOnUse"
       gradientTransform="matrix(1.0238095,0,0,1.0119048,-1.1428571,-98.071429)" />
    <clipPath
       id="clipPath4403">
      <path
         d="m 30.916245,135.971 c -0.937266,0.54113 -1.228304,1.74752 -0.677924,2.7008 l 1.9375,3.35585 c -1.418086,1.4141 -2.622273,3.01198 -3.595451,4.71 l -3.783634,-0.99095 c -0.531629,-0.14245 -1.037926,-0.11751 -1.476221,0.13061 -0.438159,0.24835 -0.796545,0.66758 -0.936598,1.19027 l -1.978825,7.38507 c -0.280102,1.04538 0.365953,2.06538 1.429126,2.35032 l 3.772195,1.03363 c -0.0062,1.95711 0.237711,3.94301 0.758755,5.87671 l -3.355849,1.9375 c -0.95328,0.55037 -1.304431,1.74066 -0.763301,2.67792 l 3.8125,6.60344 c 0.54113,0.93727 1.747521,1.2283 2.700801,0.67793 l 3.355849,-1.9375 c 1.414106,1.41808 3.011983,2.62227 4.709995,3.59545 l -0.990945,3.78363 c -0.284894,1.06325 0.275431,2.13275 1.320874,2.41282 l 7.385075,1.97883 c 1.045371,0.28011 2.065425,-0.36588 2.35032,-1.42913 l 1.033633,-3.77219 c 1.957118,0.006 3.943015,-0.23771 5.876701,-0.75876 l 1.9375,3.35585 c 0.550375,0.95328 1.740658,1.30443 2.677924,0.7633 l 6.603444,-3.8125 c 0.937258,-0.54113 1.228299,-1.74752 0.677924,-2.7008 l -1.9375,-3.35585 c 1.418087,-1.4141 2.622272,-3.01197 3.595452,-4.70999 l 3.783633,0.99094 c 1.063244,0.2849 2.132709,-0.27549 2.41282,-1.32087 l 1.978825,-7.38508 c 0.280102,-1.04537 -0.365953,-2.06538 -1.429127,-2.35032 l -3.772195,-1.03363 c 0.0062,-1.95711 -0.237701,-3.94301 -0.758754,-5.8767 l 3.355848,-1.9375 c 0.953272,-0.55037 1.304431,-1.74066 0.763301,-2.67793 l -3.8125,-6.60344 c -0.54113,-0.93726 -1.747529,-1.2283 -2.700801,-0.67792 l -3.355849,1.9375 c -1.414093,-1.4181 -3.011984,-2.62228 -4.709995,-3.59546 l 0.990945,-3.78363 c 0.284894,-1.06324 -0.275422,-2.13275 -1.320874,-2.41282 l -7.385074,-1.97882 c -1.045381,-0.28011 -2.065426,0.36588 -2.35032,1.42912 l -1.033633,3.7722 c -1.95712,-0.006 -3.943015,0.2377 -5.876702,0.75875 l -1.9375,-3.35585 c -0.55038,-0.95328 -1.740666,-1.30442 -2.677924,-0.7633 l -6.603444,3.8125 z m 10.051722,9.7851 c 6.696096,-3.866 15.258361,-1.57175 19.124356,5.12435 3.865995,6.6961 1.57174,15.25836 -5.124356,19.12436 -6.696096,3.86599 -15.258361,1.57174 -19.124356,-5.12436 -3.865995,-6.6961 -1.57174,-15.25836 5.124356,-19.12435 z"
         id="path4405"
         style="fill:url(#linearGradient4407);fill-opacity:1;fill-rule:nonzero;stroke:none;stroke-width:1;marker:none;visibility:visible;display:block;overflow:visible;enable-background:accumulate" />
    </clipPath>
    <linearGradient
       x1="48.233639"
       y1="48.047016"
       x2="126.13924"
       y2="66.232674"
       id="linearGradient4213"
       xlink:href="#linearGradient4071-3"
       gradientUnits="userSpaceOnUse" />
    <linearGradient
       id="linearGradient4071-3">
      <stop
         id="stop4073-8"
         style="stop-color:#000000;stop-opacity:1"
         offset="0" />
      <stop
         id="stop4075-4"
         style="stop-color:#000000;stop-opacity:0"
         offset="1" />
    </linearGradient>
    <linearGradient
       x1="48.055065"
       y1="48.031517"
       x2="126.67282"
       y2="62.838562"
       id="linearGradient4215"
       xlink:href="#linearGradient4047-2"
       gradientUnits="userSpaceOnUse" />
    <linearGradient
       id="linearGradient4047-2">
      <stop
         id="stop4049-0"
         style="stop-color:#000000;stop-opacity:1"
         offset="0" />
      <stop
         id="stop4051-5"
         style="stop-color:#000000;stop-opacity:0"
         offset="1" />
    </linearGradient>
    <linearGradient
       x1="47.997307"
       y1="48.028725"
       x2="127.05216"
       y2="60.289631"
       id="linearGradient4217"
       xlink:href="#linearGradient4047-2"
       gradientUnits="userSpaceOnUse" />
    <linearGradient
       x1="47.99826"
       y1="48.028797"
       x2="127.41583"
       y2="57.664623"
       id="linearGradient4219"
       xlink:href="#linearGradient4047-2"
       gradientUnits="userSpaceOnUse" />
    <linearGradient
       x1="48.233643"
       y1="48.04702"
       x2="126.13924"
       y2="66.232674"
       id="linearGradient4221"
       xlink:href="#linearGradient4115-2"
       gradientUnits="userSpaceOnUse" />
    <linearGradient
       id="linearGradient4115-2">
      <stop
         id="stop4117-3"
         style="stop-color:#ffffff;stop-opacity:1"
         offset="0" />
      <stop
         id="stop4119-6"
         style="stop-color:#ffffff;stop-opacity:0"
         offset="1" />
    </linearGradient>
    <linearGradient
       x1="48.055069"
       y1="48.031521"
       x2="126.67282"
       y2="62.838566"
       id="linearGradient4223"
       xlink:href="#linearGradient4115-2"
       gradientUnits="userSpaceOnUse" />
    <linearGradient
       x1="47.997311"
       y1="48.028728"
       x2="127.05216"
       y2="60.289635"
       id="linearGradient4225"
       xlink:href="#linearGradient4115-2"
       gradientUnits="userSpaceOnUse" />
    <linearGradient
       x1="47.998264"
       y1="48.028801"
       x2="127.41583"
       y2="57.664627"
       id="linearGradient4227"
       xlink:href="#linearGradient4115-2"
       gradientUnits="userSpaceOnUse" />
    <linearGradient
       x1="48.233639"
       y1="48.047016"
       x2="126.13924"
       y2="66.232674"
       id="linearGradient4229"
       xlink:href="#linearGradient4071-3"
       gradientUnits="userSpaceOnUse" />
    <linearGradient
       x1="48.055065"
       y1="48.031517"
       x2="126.67282"
       y2="62.838562"
       id="linearGradient4231"
       xlink:href="#linearGradient4047-2"
       gradientUnits="userSpaceOnUse" />
    <linearGradient
       x1="47.997307"
       y1="48.028725"
       x2="127.05216"
       y2="60.289631"
       id="linearGradient4233"
       xlink:href="#linearGradient4047-2"
       gradientUnits="userSpaceOnUse" />
    <linearGradient
       x1="47.99826"
       y1="48.028797"
       x2="127.41583"
       y2="57.664623"
       id="linearGradient4235"
       xlink:href="#linearGradient4047-2"
       gradientUnits="userSpaceOnUse" />
    <linearGradient
       x1="48.233639"
       y1="48.047016"
       x2="126.13924"
       y2="66.232674"
       id="linearGradient4237"
       xlink:href="#linearGradient4071-3"
       gradientUnits="userSpaceOnUse" />
    <linearGradient
       x1="48.055065"
       y1="48.031517"
       x2="126.67282"
       y2="62.838562"
       id="linearGradient4239"
       xlink:href="#linearGradient4047-2"
       gradientUnits="userSpaceOnUse" />
    <linearGradient
       x1="47.997307"
       y1="48.028725"
       x2="127.05216"
       y2="60.289631"
       id="linearGradient4241"
       xlink:href="#linearGradient4047-2"
       gradientUnits="userSpaceOnUse" />
    <linearGradient
       x1="47.99826"
       y1="48.028797"
       x2="127.41583"
       y2="57.664623"
       id="linearGradient4243"
       xlink:href="#linearGradient4047-2"
       gradientUnits="userSpaceOnUse" />
    <linearGradient
       x1="48.233643"
       y1="48.04702"
       x2="126.13924"
       y2="66.232674"
       id="linearGradient4245"
       xlink:href="#linearGradient4115-2"
       gradientUnits="userSpaceOnUse" />
    <linearGradient
       x1="48.055069"
       y1="48.031521"
       x2="126.67282"
       y2="62.838566"
       id="linearGradient4247"
       xlink:href="#linearGradient4115-2"
       gradientUnits="userSpaceOnUse" />
    <linearGradient
       x1="47.997311"
       y1="48.028728"
       x2="127.05216"
       y2="60.289635"
       id="linearGradient4249"
       xlink:href="#linearGradient4115-2"
       gradientUnits="userSpaceOnUse" />
    <linearGradient
       x1="47.998264"
       y1="48.028801"
       x2="127.41583"
       y2="57.664627"
       id="linearGradient4251"
       xlink:href="#linearGradient4115-2"
       gradientUnits="userSpaceOnUse" />
    <linearGradient
       x1="20.758585"
       y1="1"
       x2="20.758585"
       y2="45.017357"
       id="linearGradient3141"
       xlink:href="#linearGradient3309"
       gradientUnits="userSpaceOnUse"
       gradientTransform="matrix(1.2790652,0,0,1.2790652,-110.83316,56.412008)" />
    <linearGradient
       x1="63.9995"
       y1="3.1001"
       x2="63.9995"
       y2="122.8994"
       id="linearGradient3309"
       gradientUnits="userSpaceOnUse">
      <stop
         id="stop3311"
         style="stop-color:#f0f0f0;stop-opacity:1"
         offset="0" />
      <stop
         id="stop3313"
         style="stop-color:#aaaaaa;stop-opacity:1"
         offset="1" />
    </linearGradient>
    <linearGradient
       x1="48"
       y1="20.220806"
       x2="48"
       y2="138.66119"
       id="linearGradient3917"
       xlink:href="#linearGradient3737"
       gradientUnits="userSpaceOnUse" />
  </defs>
  <metadata
     id="metadata2413">
    <rdf:RDF>
      <cc:Work
         rdf:about="">
        <dc:format>image/svg+xml</dc:format>
        <dc:type
           rdf:resource="http://purl.org/dc/dcmitype/StillImage" />
        <dc:title></dc:title>
      </cc:Work>
    </rdf:RDF>
  </metadata>
  <g
     transform="translate(-14.5588,-18.813029)"
     id="layer2"
     style="display:none">
    <rect
       width="86"
       height="85"
       rx="6"
       ry="6"
       x="5"
       y="7"
       id="rect3745"
       style="opacity:0.9;fill:url(#ButtonShadow);fill-opacity:1;fill-rule:nonzero;stroke:none;filter:url(#filter3174)" />
  </g>
  <g
     transform="translate(110.72934,-56.236758)"
     id="layer3">
    <path
       d="m -83.948093,56.236758 c -2.812128,0 -5.03125,2.349265 -5.03125,5.09375 l 0,1.875 c -0.558055,0.208065 -1.114314,0.409088 -1.65625,0.65625 l -1.3125,-1.3125 c -0.815424,-0.815417 -2.045979,-1.518664 -3.53125,-1.53125 -1.303265,-0.01113 -2.609586,0.484578 -3.59375,1.46875 l -5.406247,5.40625 c -1.98399,1.98401 -1.84622,5.216073 0.0625,7.125 l 1.3125,1.3125 c -0.24716,0.541936 -0.44819,1.098196 -0.65625,1.65625 l -1.875,0 c -2.74449,0 -5.09375,2.219124 -5.09375,5.03125 l 0,7.625 c 0,2.812126 2.34926,5.03125 5.09375,5.03125 l 1.875,0 c 0.20806,0.558055 0.40909,1.114314 0.65625,1.65625 l -1.3125,1.3125 c -1.9089,1.908902 -2.04666,5.141032 -0.0625,7.125002 l 5.406247,5.40625 c 1.983946,1.98396 5.216043,1.84645 7.125,-0.0625 l 1.3125,-1.3125 c 0.541936,0.24716 1.098195,0.44818 1.65625,0.65625 l 0,1.875 c 0,2.74448 2.219121,5.09375 5.03125,5.09375 l 7.625,0 c 2.812123,0 5.03125,-2.34926 5.03125,-5.09375 l 0,-1.875 c 0.558055,-0.20807 1.114314,-0.40909 1.65625,-0.65625 l 1.3125,1.3125 c 1.908959,1.90896 5.141053,2.04644 7.125,0.0625 l 5.40625,-5.40625 c 1.983992,-1.98401 1.846223,-5.21608 -0.0625,-7.125002 l -1.3125,-1.3125 c 0.247162,-0.541935 0.448185,-1.098194 0.65625,-1.65625 l 1.875,0 c 2.744481,0 5.09375,-2.219118 5.09375,-5.03125 l 0,-7.625 c 0,-2.812131 -2.349267,-5.03125 -5.09375,-5.03125 l -1.875,0 c -0.208065,-0.558056 -0.409088,-1.114314 -0.65625,-1.65625 l 1.3125,-1.3125 c 1.908886,-1.908892 2.046695,-5.141025 0.0625,-7.125 l -5.40625,-5.40625 c -1.983947,-1.983938 -5.21604,-1.846464 -7.125,0.0625 l -1.3125,1.3125 c -0.541936,-0.247162 -1.098195,-0.448185 -1.65625,-0.65625 l 0,-1.875 c 0,-2.744491 -2.219127,-5.09375 -5.03125,-5.09375 l -7.625,0 z m 3.8125,19.6875 c 6.075308,0 10.90625,4.830942 10.90625,10.90625 0,6.075308 -4.830942,10.90625 -10.90625,10.90625 -6.075308,0 -10.90625,-4.830942 -10.90625,-10.90625 0,-6.075308 4.830942,-10.90625 10.90625,-10.90625 z"
       id="path4367"
       style="opacity:0.05;fill:#000000;fill-opacity:1;fill-rule:nonzero;stroke:none;stroke-width:1;marker:none;visibility:visible;display:block;overflow:visible;enable-background:accumulate" />
    <path
       d="m -83.948093,57.268008 c -2.226603,0 -4,1.88144 -4,4.0625 l 0,2.5625 c -1.016644,0.349685 -1.987325,0.744874 -2.9375,1.21875 l -1.8125,-1.8125 c -0.671479,-0.671474 -1.634818,-1.240285 -2.78125,-1.25 -1.022124,-0.0087 -2.053465,0.397209 -2.84375,1.1875 l -5.406247,5.40625 c -1.57034,1.570351 -1.45544,4.106901 0.0625,5.625 l 1.8125,1.8125 c -0.47388,0.950174 -0.86907,1.920858 -1.21875,2.9375 l -2.5625,0 c -2.18107,0 -4.0625,1.773399 -4.0625,4 l 0,7.625 c 0,2.226601 1.88143,4 4.0625,4 l 2.5625,0 c 0.34968,1.016643 0.74487,1.987326 1.21875,2.9375 l -1.8125,1.8125 c -1.51808,1.518082 -1.63297,4.054682 -0.0625,5.625002 l 5.406247,5.40625 c 1.570306,1.57032 4.106882,1.45561 5.625,-0.0625 l 1.8125,-1.8125 c 0.950175,0.47388 1.920856,0.86906 2.9375,1.21875 l 0,2.5625 c 0,2.18106 1.773396,4.0625 4,4.0625 l 7.625,0 c 2.226598,0 4,-1.88144 4,-4.0625 l 0,-2.5625 c 1.016644,-0.34969 1.987325,-0.74487 2.9375,-1.21875 l 1.8125,1.8125 c 1.518117,1.51812 4.054691,1.6328 5.625,0.0625 l 5.40625,-5.40625 c 1.570337,-1.57035 1.455437,-4.1069 -0.0625,-5.625002 l -1.8125,-1.8125 c 0.473875,-0.950173 0.869065,-1.920855 1.21875,-2.9375 l 2.5625,0 c 2.181056,0 4.0625,-1.773393 4.0625,-4 l 0,-7.625 c 0,-2.226606 -1.881442,-4 -4.0625,-4 l -2.5625,0 c -0.349685,-1.016646 -0.744874,-1.987327 -1.21875,-2.9375 l 1.8125,-1.8125 c 1.518067,-1.518072 1.632997,-4.054677 0.0625,-5.625 l -5.40625,-5.40625 c -1.570309,-1.570302 -4.106883,-1.45562 -5.625,0.0625 l -1.8125,1.8125 c -0.950175,-0.473876 -1.920856,-0.869065 -2.9375,-1.21875 l 0,-2.5625 c 0,-2.181066 -1.773402,-4.0625 -4,-4.0625 l -7.625,0 z m 3.8125,17.625 c 6.630024,0 11.9375,5.307476 11.9375,11.9375 0,6.630024 -5.307476,11.9375 -11.9375,11.9375 -6.630024,0 -11.9375,-5.307476 -11.9375,-11.9375 0,-6.630024 5.307476,-11.9375 11.9375,-11.9375 z"
       id="path4363"
       style="opacity:0.07999998;fill:#000000;fill-opacity:1;fill-rule:nonzero;stroke:none;stroke-width:1;marker:none;visibility:visible;display:block;overflow:visible;enable-background:accumulate" />
    <path
       d="m -83.948093,58.299258 c -1.649639,0 -2.96875,1.39995 -2.96875,3.03125 l 0,3.21875 c -1.461857,0.450067 -2.865234,1.039291 -4.1875,1.75 l -2.3125,-2.28125 c -0.52527,-0.525266 -1.250126,-0.930616 -2.0625,-0.9375 -0.759326,-0.0065 -1.530481,0.280476 -2.125,0.875 l -5.406247,5.40625 c -1.16146,1.16147 -1.07458,3.050296 0.0625,4.1875 l 2.28125,2.3125 c -0.71071,1.322265 -1.29993,2.725645 -1.75,4.1875 l -3.21875,0 c -1.63131,0 -3.03125,1.319113 -3.03125,2.96875 l 0,7.625 c 0,1.649637 1.39994,2.96875 3.03125,2.96875 l 3.21875,0 c 0.45007,1.461856 1.03929,2.865236 1.75,4.1875 l -2.28125,2.312502 c -1.13719,1.13718 -1.22406,3.02605 -0.0625,4.1875 l 5.406247,5.40625 c 1.161443,1.16145 3.050289,1.07471 4.1875,-0.0625 l 2.3125,-2.28125 c 1.322267,0.71071 2.725643,1.29993 4.1875,1.75 l 0,3.21875 c 0,1.6313 1.319111,3.03125 2.96875,3.03125 l 7.625,0 c 1.649634,0 2.96875,-1.39995 2.96875,-3.03125 l 0,-3.21875 c 1.461857,-0.45007 2.865233,-1.03929 4.1875,-1.75 l 2.3125,2.28125 c 1.137207,1.13721 3.026053,1.22394 4.1875,0.0625 l 5.40625,-5.40625 c 1.16146,-1.16147 1.074582,-3.0503 -0.0625,-4.1875 l -2.28125,-2.312502 c 0.710707,-1.322263 1.299931,-2.72564 1.75,-4.1875 l 3.21875,0 c 1.631297,0 3.03125,-1.319107 3.03125,-2.96875 l 0,-7.625 c 0,-1.649642 -1.399951,-2.96875 -3.03125,-2.96875 l -3.21875,0 c -0.450068,-1.461861 -1.039293,-2.865237 -1.75,-4.1875 l 2.28125,-2.3125 c 1.137179,-1.137183 1.224077,-3.026052 0.0625,-4.1875 l -5.40625,-5.40625 c -1.161447,-1.161442 -3.050293,-1.074709 -4.1875,0.0625 l -2.3125,2.28125 c -1.322266,-0.710709 -2.725643,-1.299933 -4.1875,-1.75 l 0,-3.21875 c 0,-1.631306 -1.319116,-3.03125 -2.96875,-3.03125 l -7.625,0 z m 3.8125,15.5625 c 7.178426,0 12.96875,5.790324 12.96875,12.96875 0,7.178426 -5.790324,12.96875 -12.96875,12.96875 -7.178426,0 -12.96875,-5.790324 -12.96875,-12.96875 0,-7.178426 5.790324,-12.96875 12.96875,-12.96875 z"
       id="path4359"
       style="opacity:0.2;fill:#000000;fill-opacity:1;fill-rule:nonzero;stroke:none;stroke-width:1;marker:none;visibility:visible;display:block;overflow:visible;enable-background:accumulate" />
    <path
       d="m -83.948093,59.330508 c -1.082262,0 -1.9375,0.899245 -1.9375,2 l 0,3.875 c -1.935147,0.515597 -3.776942,1.297312 -5.46875,2.28125 l -2.78125,-2.75 c -0.389179,-0.389176 -0.840116,-0.620732 -1.34375,-0.625 -0.503633,-0.0043 -1.023619,0.179866 -1.40625,0.5625 l -5.406247,5.40625 c -0.76527,0.76527 -0.71577,1.971648 0.0625,2.75 l 2.749997,2.78125 c -0.983937,1.691803 -1.765637,3.533599 -2.281247,5.46875 l -3.875,0 c -1.10076,0 -2,0.855244 -2,1.9375 l 0,7.625 c 0,1.082256 0.89924,1.9375 2,1.9375 l 3.875,0 c 0.51561,1.935152 1.29731,3.776947 2.281247,5.46875 l -2.749997,2.781252 c -0.77835,0.77835 -0.82785,1.98473 -0.0625,2.75 l 5.406247,5.40625 c 0.765262,0.76527 1.971652,0.71585 2.75,-0.0625 l 2.78125,-2.75 c 1.691808,0.98394 3.533603,1.76565 5.46875,2.28125 l 0,3.875 c 0,1.10075 0.855238,2 1.9375,2 l 7.625,0 c 1.082252,0 1.9375,-0.89925 1.9375,-2 l 0,-3.875 c 1.935147,-0.5156 3.776941,-1.29731 5.46875,-2.28125 l 2.78125,2.75 c 0.778348,0.77835 1.984727,0.82777 2.75,0.0625 l 5.40625,-5.40625 c 0.765263,-0.76527 0.715767,-1.97165 -0.0625,-2.75 l -2.75,-2.781252 c 0.983933,-1.691803 1.765651,-3.533598 2.28125,-5.46875 l 3.875,0 c 1.100744,0 2,-0.855243 2,-1.9375 l 0,-7.625 c 0,-1.082255 -0.899256,-1.9375 -2,-1.9375 l -3.875,0 c -0.515595,-1.935151 -1.297317,-3.776947 -2.28125,-5.46875 l 2.75,-2.78125 c 0.778348,-0.778351 0.827855,-1.98473 0.0625,-2.75 l -5.40625,-5.40625 c -0.765273,-0.76527 -1.971652,-0.715849 -2.75,0.0625 l -2.78125,2.75 c -1.691809,-0.983938 -3.533603,-1.765653 -5.46875,-2.28125 l 0,-3.875 c 0,-1.100755 -0.855248,-2 -1.9375,-2 l -7.625,0 z m 3.8125,13.5 c 7.731986,0 14,6.268014 14,14 0,7.731986 -6.268014,14.000002 -14,14.000002 -7.731986,0 -14,-6.268016 -14,-14.000002 0,-7.731986 6.268014,-14 14,-14 z"
       id="path4353"
       style="opacity:0.3;fill:#000000;fill-opacity:1;fill-rule:nonzero;stroke:none;stroke-width:1;marker:none;visibility:visible;display:block;overflow:visible;enable-background:accumulate" />
    <path
       d="m -83.948093,58.330508 c -1.082262,0 -1.9375,0.899245 -1.9375,2 l 0,3.875 c -1.935147,0.515597 -3.776942,1.297312 -5.46875,2.28125 l -2.78125,-2.75 c -0.389179,-0.389176 -0.840116,-0.620732 -1.34375,-0.625 -0.503633,-0.0043 -1.023619,0.179866 -1.40625,0.5625 l -5.406247,5.40625 c -0.76527,0.76527 -0.71577,1.971648 0.0625,2.75 l 2.749997,2.78125 c -0.983937,1.691803 -1.765637,3.533599 -2.281247,5.46875 l -3.875,0 c -1.10076,0 -2,0.855244 -2,1.9375 l 0,7.625 c 0,1.082256 0.89924,1.9375 2,1.9375 l 3.875,0 c 0.51561,1.935152 1.29731,3.776947 2.281247,5.46875 l -2.749997,2.78125 c -0.77835,0.778352 -0.82785,1.984732 -0.0625,2.750002 l 5.406247,5.40625 c 0.765262,0.76527 1.971652,0.71585 2.75,-0.0625 l 2.78125,-2.75 c 1.691808,0.98394 3.533603,1.76565 5.46875,2.28125 l 0,3.875 c 0,1.10075 0.855238,2 1.9375,2 l 7.625,0 c 1.082252,0 1.9375,-0.89925 1.9375,-2 l 0,-3.875 c 1.935147,-0.5156 3.776941,-1.29731 5.46875,-2.28125 l 2.78125,2.75 c 0.778348,0.77835 1.984727,0.82777 2.75,0.0625 l 5.40625,-5.40625 c 0.765263,-0.76527 0.715767,-1.97165 -0.0625,-2.750002 l -2.75,-2.78125 c 0.983933,-1.691803 1.765651,-3.533598 2.28125,-5.46875 l 3.875,0 c 1.100744,0 2,-0.855243 2,-1.9375 l 0,-7.625 c 0,-1.082255 -0.899256,-1.9375 -2,-1.9375 l -3.875,0 c -0.515595,-1.935151 -1.297317,-3.776947 -2.28125,-5.46875 l 2.75,-2.78125 c 0.778348,-0.778351 0.827855,-1.98473 0.0625,-2.75 l -5.40625,-5.40625 c -0.765273,-0.76527 -1.971652,-0.715849 -2.75,0.0625 l -2.78125,2.75 c -1.691809,-0.983938 -3.533603,-1.765653 -5.46875,-2.28125 l 0,-3.875 c 0,-1.100755 -0.855248,-2 -1.9375,-2 l -7.625,0 z m 3.8125,13.5 c 7.731986,0 14,6.268014 14,14 0,7.731986 -6.268014,14 -14,14 -7.731986,0 -14,-6.268014 -14,-14 0,-7.731986 6.268014,-14 14,-14 z"
       id="rect3267"
       style="fill:url(#linearGradient3141);fill-opacity:1;fill-rule:nonzero;stroke:none;stroke-width:1;marker:none;visibility:visible;display:block;overflow:visible;enable-background:accumulate" />
    <g
       transform="matrix(0.8660254,0.5,-0.5,0.8660254,-42.736843,-74.881962)"
       clip-path="url(#clipPath4403)"
       id="g4176">
      <g
         transform="matrix(0.1413721,0.99271966,-1.1651755,0.12044784,96.937266,104.80532)"
         id="g4011"
         style="opacity:0.9">
        <path
           d="m 108.8959,48 a 60.895905,60.895905 0 0 1 -6.54616,27.466658 L 48,48 z"
           transform="matrix(0.99411049,-0.1083712,0.1083712,0.99411049,-5.1582185,5.4918915)"
           id="path4009"
           style="opacity:0.05;color:#000000;fill:url(#linearGradient4213);fill-opacity:1;fill-rule:nonzero;stroke:none;stroke-width:2;marker:none;visibility:visible;display:inline;overflow:visible;enable-background:accumulate" />
        <path
           d="m 108.8959,48 a 60.895905,60.895905 0 0 1 -4.45721,22.86887 L 48,48 z"
           transform="matrix(0.99786084,-0.06537382,0.06537382,0.99786084,-3.0940115,3.2415713)"
           id="path4007"
           style="opacity:0.07000002;color:#000000;fill:url(#linearGradient4215);fill-opacity:1;fill-rule:nonzero;stroke:none;stroke-width:2;marker:none;visibility:visible;display:inline;overflow:visible;enable-background:accumulate" />
        <path
           d="m 108.8959,48 a 60.895905,60.895905 0 0 1 -3.12994,19.271878 L 48,48 z"
           transform="matrix(0.99945136,-0.0331207,0.0331207,0.99945136,-1.5634586,1.6161281)"
           id="path4005"
           style="opacity:0.1;color:#000000;fill:url(#linearGradient4217);fill-opacity:1;fill-rule:nonzero;stroke:none;stroke-width:2;marker:none;visibility:visible;display:inline;overflow:visible;enable-background:accumulate" />
        <path
           d="m 108.8959,48 a 60.895905,60.895905 0 0 1 -2.07497,15.76102 L 48,48 z"
           id="path4003"
           style="opacity:0.05;color:#000000;fill:url(#linearGradient4219);fill-opacity:1;fill-rule:nonzero;stroke:none;stroke-width:2;marker:none;visibility:visible;display:inline;overflow:visible;enable-background:accumulate" />
      </g>
      <g
         transform="matrix(1.062807,-0.13087531,-0.74010065,3.227468,32.525111,9.33226)"
         id="g4027"
         style="opacity:0.9;fill:#ffffff">
        <path
           d="m 108.8959,48 a 60.895905,60.895905 0 0 1 -6.54616,27.466658 L 48,48 z"
           transform="matrix(0.99411049,-0.1083712,0.1083712,0.99411049,-5.1582185,5.4918915)"
           id="path4029"
           style="opacity:0.2;color:#000000;fill:url(#linearGradient4221);fill-opacity:1;fill-rule:nonzero;stroke:none;stroke-width:2;marker:none;visibility:visible;display:inline;overflow:visible;enable-background:accumulate" />
        <path
           d="m 108.8959,48 a 60.895905,60.895905 0 0 1 -4.45721,22.86887 L 48,48 z"
           transform="matrix(0.99786084,-0.06537382,0.06537382,0.99786084,-3.0940115,3.2415713)"
           id="path4031"
           style="opacity:0.4;color:#000000;fill:url(#linearGradient4223);fill-opacity:1;fill-rule:nonzero;stroke:none;stroke-width:2;marker:none;visibility:visible;display:inline;overflow:visible;enable-background:accumulate" />
        <path
           d="m 108.8959,48 a 60.895905,60.895905 0 0 1 -3.12994,19.271878 L 48,48 z"
           transform="matrix(0.99945136,-0.0331207,0.0331207,0.99945136,-1.5634586,1.6161281)"
           id="path4033"
           style="opacity:0.6;color:#000000;fill:url(#linearGradient4225);fill-opacity:1;fill-rule:nonzero;stroke:none;stroke-width:2;marker:none;visibility:visible;display:inline;overflow:visible;enable-background:accumulate" />
        <path
           d="m 108.8959,48 a 60.895905,60.895905 0 0 1 -2.07497,15.76102 L 48,48 z"
           id="path4035"
           style="opacity:0.8;color:#000000;fill:url(#linearGradient4227);fill-opacity:1;fill-rule:nonzero;stroke:none;stroke-width:2;marker:none;visibility:visible;display:inline;overflow:visible;enable-background:accumulate" />
      </g>
      <g
         transform="matrix(-0.61678932,0.78712829,-0.78712829,-0.61678932,115.00148,150.01193)"
         id="g4079"
         style="opacity:0.5">
        <path
           d="m 108.8959,48 a 60.895905,60.895905 0 0 1 -6.54616,27.466658 L 48,48 z"
           transform="matrix(0.99411049,-0.1083712,0.1083712,0.99411049,-5.1582185,5.4918915)"
           id="path4081"
           style="opacity:0.05;color:#000000;fill:url(#linearGradient4229);fill-opacity:1;fill-rule:nonzero;stroke:none;stroke-width:2;marker:none;visibility:visible;display:inline;overflow:visible;enable-background:accumulate" />
        <path
           d="m 108.8959,48 a 60.895905,60.895905 0 0 1 -4.45721,22.86887 L 48,48 z"
           transform="matrix(0.99786084,-0.06537382,0.06537382,0.99786084,-3.0940115,3.2415713)"
           id="path4083"
           style="opacity:0.07000002;color:#000000;fill:url(#linearGradient4231);fill-opacity:1;fill-rule:nonzero;stroke:none;stroke-width:2;marker:none;visibility:visible;display:inline;overflow:visible;enable-background:accumulate" />
        <path
           d="m 108.8959,48 a 60.895905,60.895905 0 0 1 -3.12994,19.271878 L 48,48 z"
           transform="matrix(0.99945136,-0.0331207,0.0331207,0.99945136,-1.5634586,1.6161281)"
           id="path4085"
           style="opacity:0.1;color:#000000;fill:url(#linearGradient4233);fill-opacity:1;fill-rule:nonzero;stroke:none;stroke-width:2;marker:none;visibility:visible;display:inline;overflow:visible;enable-background:accumulate" />
        <path
           d="m 108.8959,48 a 60.895905,60.895905 0 0 1 -2.07497,15.76102 L 48,48 z"
           id="path4087"
           style="opacity:0.1;color:#000000;fill:url(#linearGradient4235);fill-opacity:1;fill-rule:nonzero;stroke:none;stroke-width:2;marker:none;visibility:visible;display:inline;overflow:visible;enable-background:accumulate" />
      </g>
      <g
         transform="matrix(-0.06817198,-1.0460056,2.710673,0.60162586,-79.095447,179.08013)"
         id="g4097"
         style="opacity:0.8">
        <path
           d="m 108.8959,48 a 60.895905,60.895905 0 0 1 -6.54616,27.466658 L 48,48 z"
           transform="matrix(0.99411049,-0.1083712,0.1083712,0.99411049,-5.1582185,5.4918915)"
           id="path4099"
           style="opacity:0.05;color:#000000;fill:url(#linearGradient4237);fill-opacity:1;fill-rule:nonzero;stroke:none;stroke-width:2;marker:none;visibility:visible;display:inline;overflow:visible;enable-background:accumulate" />
        <path
           d="m 108.8959,48 a 60.895905,60.895905 0 0 1 -4.45721,22.86887 L 48,48 z"
           transform="matrix(0.99786084,-0.06537382,0.06537382,0.99786084,-3.0940115,3.2415713)"
           id="path4101"
           style="opacity:0.07000002;color:#000000;fill:url(#linearGradient4239);fill-opacity:1;fill-rule:nonzero;stroke:none;stroke-width:2;marker:none;visibility:visible;display:inline;overflow:visible;enable-background:accumulate" />
        <path
           d="m 108.8959,48 a 60.895905,60.895905 0 0 1 -3.12994,19.271878 L 48,48 z"
           transform="matrix(0.99945136,-0.0331207,0.0331207,0.99945136,-1.5634586,1.6161281)"
           id="path4103"
           style="opacity:0.1;color:#000000;fill:url(#linearGradient4241);fill-opacity:1;fill-rule:nonzero;stroke:none;stroke-width:2;marker:none;visibility:visible;display:inline;overflow:visible;enable-background:accumulate" />
        <path
           d="m 108.8959,48 a 60.895905,60.895905 0 0 1 -2.07497,15.76102 L 48,48 z"
           id="path4105"
           style="opacity:0.1;color:#000000;fill:url(#linearGradient4243);fill-opacity:1;fill-rule:nonzero;stroke:none;stroke-width:2;marker:none;visibility:visible;display:inline;overflow:visible;enable-background:accumulate" />
      </g>
      <g
         transform="matrix(-1.062807,0.1308753,0.74010064,-3.227468,62.996694,306.66774)"
         id="g4147"
         style="opacity:0.9;fill:#ffffff">
        <path
           d="m 108.8959,48 a 60.895905,60.895905 0 0 1 -6.54616,27.466658 L 48,48 z"
           transform="matrix(0.99411049,-0.1083712,0.1083712,0.99411049,-5.1582185,5.4918915)"
           id="path4149"
           style="opacity:0.2;color:#000000;fill:url(#linearGradient4245);fill-opacity:1;fill-rule:nonzero;stroke:none;stroke-width:2;marker:none;visibility:visible;display:inline;overflow:visible;enable-background:accumulate" />
        <path
           d="m 108.8959,48 a 60.895905,60.895905 0 0 1 -4.45721,22.86887 L 48,48 z"
           transform="matrix(0.99786084,-0.06537382,0.06537382,0.99786084,-3.0940115,3.2415713)"
           id="path4151"
           style="opacity:0.4;color:#000000;fill:url(#linearGradient4247);fill-opacity:1;fill-rule:nonzero;stroke:none;stroke-width:2;marker:none;visibility:visible;display:inline;overflow:visible;enable-background:accumulate" />
        <path
           d="m 108.8959,48 a 60.895905,60.895905 0 0 1 -3.12994,19.271878 L 48,48 z"
           transform="matrix(0.99945136,-0.0331207,0.0331207,0.99945136,-1.5634586,1.6161281)"
           id="path4153"
           style="opacity:0.6;color:#000000;fill:url(#linearGradient4249);fill-opacity:1;fill-rule:nonzero;stroke:none;stroke-width:2;marker:none;visibility:visible;display:inline;overflow:visible;enable-background:accumulate" />
        <path
           d="m 108.8959,48 a 60.895905,60.895905 0 0 1 -2.07497,15.76102 L 48,48 z"
           id="path4155"
           style="opacity:0.8;color:#000000;fill:url(#linearGradient4251);fill-opacity:1;fill-rule:nonzero;stroke:none;stroke-width:2;marker:none;visibility:visible;display:inline;overflow:visible;enable-background:accumulate" />
      </g>
    </g>
    <path
       d="m -83.948093,58.330508 c -1.082262,0 -1.9375,0.899245 -1.9375,2 l 0,1 c 0,-1.100755 0.855238,-2 1.9375,-2 l 7.625,0 c 1.082252,0 1.9375,0.899245 1.9375,2 l 0,-1 c 0,-1.100755 -0.855248,-2 -1.9375,-2 l -7.625,0 z m -11.53125,4.78125 c -0.503633,-0.0043 -1.023619,0.179866 -1.40625,0.5625 l -5.406247,5.40625 c -0.49645,0.496448 -0.6346,1.182061 -0.46875,1.8125 0.0841,-0.291632 0.23475,-0.578504 0.46875,-0.8125 l 5.406247,-5.40625 c 0.382631,-0.382634 0.902617,-0.5668 1.40625,-0.5625 0.503634,0.0043 0.954571,0.235824 1.34375,0.625 l 2.78125,2.75 c 1.691808,-0.983938 3.533603,-1.765653 5.46875,-2.28125 l 0,-1 c -1.935147,0.515597 -3.776942,1.297312 -5.46875,2.28125 l -2.78125,-2.75 c -0.389179,-0.389176 -0.840116,-0.620732 -1.34375,-0.625 z m 30.71875,0 c -0.494547,0.01399 -0.985826,0.235826 -1.375,0.625 l -2.78125,2.75 c -1.691809,-0.983938 -3.533603,-1.765653 -5.46875,-2.28125 l 0,1 c 1.935147,0.515597 3.776941,1.297312 5.46875,2.28125 l 2.78125,-2.75 c 0.778348,-0.778349 1.984727,-0.82777 2.75,-0.0625 l 5.40625,5.40625 c 0.234022,0.233996 0.38464,0.520868 0.46875,0.8125 0.165867,-0.630439 0.02775,-1.316052 -0.46875,-1.8125 l -5.40625,-5.40625 c -0.382637,-0.382635 -0.880453,-0.57649 -1.375,-0.5625 z m -35.0625,12.15625 c -0.812757,1.508863 -1.487567,3.123824 -1.937497,4.8125 l -3.875,0 c -1.10076,0 -2,0.855244 -2,1.9375 l 0,1 c 0,-1.082256 0.89924,-1.9375 2,-1.9375 l 3.875,0 c 0.51561,-1.935151 1.29731,-3.776947 2.281247,-5.46875 l -0.34375,-0.34375 z m 39.375,0 -0.34375,0.34375 c 0.983933,1.691803 1.765655,3.533599 2.28125,5.46875 l 3.875,0 c 1.100744,0 2,0.855245 2,1.9375 l 0,-1 c 0,-1.082255 -0.899256,-1.9375 -2,-1.9375 l -3.875,0 c -0.449925,-1.688676 -1.124742,-3.303637 -1.9375,-4.8125 z m -33.65625,11.0625 c -0.0059,0.16679 -0.03125,0.331775 -0.03125,0.5 0,7.731986 6.268014,14.000002 14,14.000002 7.731986,0 14,-6.268016 14,-14.000002 0,-0.168225 -0.02537,-0.33321 -0.03125,-0.5 -0.264589,7.499218 -6.404989,13.5 -13.96875,13.5 -7.563761,0 -13.704161,-6.000782 -13.96875,-13.5 z m -5.71875,11.0625 -2.406247,2.4375 c -0.54036,0.540352 -0.72222,1.275372 -0.53125,1.937502 0.0898,-0.34138 0.25783,-0.66408 0.53125,-0.9375 l 2.749997,-2.781252 c -0.125321,-0.21548 -0.225122,-0.43602 -0.34375,-0.65625 z m 39.375,0 c -0.118628,0.22023 -0.218429,0.44077 -0.34375,0.65625 l 2.75,2.781252 c 0.273388,0.27342 0.441444,0.59612 0.53125,0.9375 0.190945,-0.66213 0.009,-1.39715 -0.53125,-1.937502 l -2.40625,-2.4375 z"
       id="path4382"
       style="opacity:0.7;fill:#ffffff;fill-opacity:1;fill-rule:nonzero;stroke:none;stroke-width:1;marker:none;visibility:visible;display:block;overflow:visible;enable-background:accumulate" />
    <path
       d="m -102.76059,69.893008 c -0.19095,0.662133 -0.009,1.397144 0.53125,1.9375 l 2.406247,2.4375 c 0.118628,-0.22023 0.218429,-0.44077 0.34375,-0.65625 l -2.749997,-2.78125 c -0.27339,-0.273417 -0.44145,-0.596123 -0.53125,-0.9375 z m 45.249997,0 c -0.08982,0.341377 -0.257834,0.664083 -0.53125,0.9375 l -2.75,2.78125 c 0.125321,0.21548 0.225122,0.43602 0.34375,0.65625 l 2.40625,-2.4375 c 0.540353,-0.540355 0.722218,-1.275367 0.53125,-1.9375 z m -22.625,0.9375 c -7.731986,0 -14,6.268014 -14,14 0,0.168225 0.02537,0.33321 0.03125,0.5 0.264589,-7.499218 6.404989,-13.5 13.96875,-13.5 7.563761,0 13.704161,6.000782 13.96875,13.5 0.0059,-0.16679 0.03125,-0.331775 0.03125,-0.5 0,-7.731986 -6.268014,-14 -14,-14 z m -27.499997,17.8125 0,1 c 0,1.082256 0.89924,1.9375 2,1.9375 l 3.875,0 c 0.44993,1.688677 1.12474,3.303637 1.937497,4.8125 l 0.34375,-0.34375 c -0.983937,-1.691803 -1.765637,-3.533598 -2.281247,-5.46875 l -3.875,0 c -1.10076,0 -2,-0.855244 -2,-1.9375 z m 54.999997,0 c 0,1.082257 -0.899256,1.9375 -2,1.9375 l -3.875,0 c -0.515599,1.935152 -1.297317,3.776947 -2.28125,5.46875 l 0.34375,0.34375 c 0.812757,-1.508863 1.487571,-3.123823 1.9375,-4.8125 l 3.875,0 c 1.100744,0 2,-0.855243 2,-1.9375 l 0,-1 z m -50.124997,12.125002 c -0.16587,0.63044 -0.0278,1.31605 0.46875,1.8125 l 5.406247,5.40625 c 0.765262,0.76527 1.971652,0.71585 2.75,-0.0625 l 2.78125,-2.75 c 1.691808,0.98394 3.533603,1.76565 5.46875,2.28125 l 0,-1 c -1.935147,-0.5156 -3.776942,-1.29731 -5.46875,-2.28125 l -2.78125,2.75 c -0.778348,0.77835 -1.984738,0.82777 -2.75,0.0625 l -5.406247,-5.40625 c -0.23402,-0.234 -0.38464,-0.52087 -0.46875,-0.8125 z m 45.249997,0 c -0.0841,0.29163 -0.234756,0.5785 -0.46875,0.8125 l -5.40625,5.40625 c -0.765273,0.76527 -1.971652,0.71585 -2.75,-0.0625 l -2.78125,-2.75 c -1.691809,0.98394 -3.533603,1.76565 -5.46875,2.28125 l 0,1 c 1.935147,-0.5156 3.776941,-1.29731 5.46875,-2.28125 l 2.78125,2.75 c 0.778348,0.77835 1.984727,0.82777 2.75,0.0625 l 5.40625,-5.40625 c 0.496443,-0.49645 0.634599,-1.18206 0.46875,-1.8125 z m -28.375,9.5625 0,1 c 0,1.10075 0.855238,2 1.9375,2 l 7.625,0 c 1.082252,0 1.9375,-0.89925 1.9375,-2 l 0,-1 c 0,1.10075 -0.855248,2 -1.9375,2 l -7.625,0 c -1.082262,0 -1.9375,-0.89925 -1.9375,-2 z"
       id="path4391"
       style="opacity:0.2;fill:#000000;fill-opacity:1;fill-rule:nonzero;stroke:none;stroke-width:1;marker:none;visibility:visible;display:block;overflow:visible;enable-background:accumulate" />
  </g>
</svg>
