<?xml version="1.0" encoding="UTF-8" standalone="no"?>
<!-- Created with Inkscape (http://www.inkscape.org/) -->

<svg
   xmlns:dc="http://purl.org/dc/elements/1.1/"
   xmlns:cc="http://creativecommons.org/ns#"
   xmlns:rdf="http://www.w3.org/1999/02/22-rdf-syntax-ns#"
   xmlns:svg="http://www.w3.org/2000/svg"
   xmlns="http://www.w3.org/2000/svg"
   xmlns:sodipodi="http://sodipodi.sourceforge.net/DTD/sodipodi-0.dtd"
   xmlns:inkscape="http://www.inkscape.org/namespaces/inkscape"
   id="svg2"
   version="1.1"
   inkscape:version="0.48.2 r9819"
   width="300"
   height="300"
   sodipodi:docname="logo-daxweb.svg">
  <metadata
     id="metadata8">
    <rdf:RDF>
      <cc:Work
         rdf:about="">
        <dc:format>image/svg+xml</dc:format>
        <dc:type
           rdf:resource="http://purl.org/dc/dcmitype/StillImage" />
        <dc:title />
      </cc:Work>
    </rdf:RDF>
  </metadata>
  <defs
     id="defs6" />
  <sodipodi:namedview
     pagecolor="#ffffff"
     bordercolor="#666666"
     borderopacity="1"
     objecttolerance="10"
     gridtolerance="10"
     guidetolerance="10"
     inkscape:pageopacity="0"
     inkscape:pageshadow="2"
     inkscape:window-width="1440"
     inkscape:window-height="876"
     id="namedview4"
     showgrid="false"
     inkscape:zoom="1.5733333"
     inkscape:cx="80.235195"
     inkscape:cy="147.52944"
     inkscape:window-x="0"
     inkscape:window-y="24"
     inkscape:window-maximized="1"
     inkscape:current-layer="svg2" />
  <g
     id="g2987"
     transform="matrix(1.1868634,0,0,1.1789683,299.62034,-150.68919)">
    <path
       style="fill:#eb043a;fill-opacity:1;stroke:none"
       d="m -29.16533,270.925 c -15.889335,-5.59299 -77.16001,-29.67774 -79.81206,-31.37314 -1.42489,-0.91089 25.644406,-31.85765 75.347729,-86.14073 22.403924,-24.46823 22.722931,-24.76504 23.009423,-21.40785 0.313289,3.67141 -6.259283,127.1093 -7.272402,136.58118 -0.336814,3.14895 -0.901817,5.70618 -1.255558,5.68276 -0.353741,-0.0235 -4.861445,-1.52744 -10.017132,-3.34222 z"
       id="path3769"
       inkscape:connector-curvature="0" />
    <path
       style="fill:#75b20b;fill-opacity:0.99496472;stroke:none"
       d="m -148.79135,267.12186 c -4.92631,-3.92679 -58.64335,-58.23548 -58.11458,-58.75468 0.47614,-0.46752 5.92272,1.57777 54.34593,20.40785 18.10208,7.03927 32.9129,13.04505 32.9129,13.34617 0,0.97683 -13.76473,16.42165 -19.77714,22.19111 l -5.84971,5.6133 -3.5174,-2.80375 z"
       id="path3767"
       inkscape:connector-curvature="0" />
    <path
       style="fill:#0ba4b2;fill-opacity:1;stroke:none"
       d="m -146.97502,372.35154 c -42.25948,-1.18111 -77.99238,-2.29554 -79.40644,-2.47652 -2.51704,-0.32213 -2.41869,-0.49884 4.68509,-8.41739 43.67549,-48.68489 68.9267,-76.62265 71.30542,-78.89182 l 2.87956,-2.74696 4.95327,4.33155 c 2.72429,2.38236 24.34953,23.71904 48.056067,47.41487 l 43.102801,43.08329 -9.370168,-0.0747 c -5.153601,-0.0412 -43.94612,-1.04113 -86.2056,-2.22226 z"
       id="path2997"
       inkscape:connector-curvature="0" />
    <path
       style="fill:#070706"
       d="m -94.525809,381.35001 c -15.400001,-0.44124 -53.594971,-1.48841 -84.877711,-2.32703 -38.99037,-1.04525 -57.30927,-1.88295 -58.24999,-2.66368 -3.12454,-2.59313 -1.51183,-6.21155 6.89082,-15.46083 4.53028,-4.98676 23.94495,-26.28896 43.14369,-47.33822 l 34.90681,-38.27139 -37.15681,-37.16672 c -30.96541,-30.97366 -37.15681,-37.62769 -37.15681,-39.93322 0,-6.44692 0.71506,-6.25891 54.5,14.32979 27.5,10.52692 51.62543,19.7295 53.61207,20.45019 l 3.61206,1.31034 51.830481,-56.87387 c 28.50676,-31.28063 52.48223,-57.12397 53.27881,-57.42965 2.3735996,-0.91083 5.1231896,0.46853 5.7266396,2.87283 0.31058,1.23748 -1.2565,36.62204 -3.4824,78.63236 -4.3234696,81.59828 -4.0451096,79.23438 -9.3303096,79.23438 -1.33717,0 -23.17719,-7.93125 -48.53338,-17.625 -25.35618,-9.69375 -46.335671,-17.625 -46.621091,-17.625 -0.28541,0 -6.60313,6.6375 -14.03938,14.75 l -13.52044,14.75 50.483471,50.5229 c 27.76591,27.78759 50.48347,51.23035 50.48347,52.09501 0,0.86466 -0.82293,2.31686 -1.82874,3.2271 -2.07406,1.877 -5.71872,1.91365 -53.67126,0.53971 z m -5.00408,-53.90269 c -25.297751,-25.30989 -46.482311,-45.89739 -47.076781,-45.75 -0.59448,0.14738 -18.75781,19.84297 -40.36296,43.76797 l -39.28209,43.5 79.36295,2.09778 c 43.64963,1.15378 82.511131,2.16628 86.358881,2.25 l 6.99593,0.15222 -45.99593,-46.01797 z m 80.3916,-81.98203 c 0.6477,-12.925 1.61939,-30.7 2.15932,-39.5 2.35573,-38.39441 3.95735,-69.82914 3.57721,-70.20928 -0.40779,-0.40779 -91.884031,100.1347 -92.384681,101.54098 -0.27064,0.76021 3.86355,2.46793 42.260631,17.4567 28.31408,11.05274 41.81221,15.76881 42.60495,14.88559 0.33272,-0.37069 1.13488,-11.24899 1.78257,-24.17399 z m -114.388721,9.62374 c 6.40677,-7.08195 11.27799,-13.21584 10.82494,-13.63087 -0.45306,-0.41504 -17.92374,-7.37909 -38.82374,-15.47568 -20.9,-8.09659 -39.575,-15.36714 -41.5,-16.15677 -2.76345,-1.13357 0.0865,2.20232 13.54298,15.85194 9.37363,9.5082 22.71566,23.07779 29.64896,30.15465 6.9333,7.07686 13.06774,12.70186 13.6321,12.5 0.56435,-0.20186 6.26799,-6.16133 12.67476,-13.24327 z"
       id="path2989"
       inkscape:connector-curvature="0" />
  </g>
</svg>
