<?xml version="1.0" encoding="UTF-8" standalone="no"?>
<!-- Created with Inkscape (http://www.inkscape.org/) -->

<svg
   xmlns:dc="http://purl.org/dc/elements/1.1/"
   xmlns:cc="http://creativecommons.org/ns#"
   xmlns:rdf="http://www.w3.org/1999/02/22-rdf-syntax-ns#"
   xmlns:svg="http://www.w3.org/2000/svg"
   xmlns="http://www.w3.org/2000/svg"
   xmlns:xlink="http://www.w3.org/1999/xlink"
   xmlns:sodipodi="http://sodipodi.sourceforge.net/DTD/sodipodi-0.dtd"
   xmlns:inkscape="http://www.inkscape.org/namespaces/inkscape"
   version="1.1"
   width="800"
   height="800"
   id="svg2"
   inkscape:version="0.48.2 r9819"
   sodipodi:docname="logo.svg"
   inkscape:export-filename="/home/victor/Desarrollo/localhost/daxosstore-web/images/header/logo.png"
   inkscape:export-xdpi="30"
   inkscape:export-ydpi="30">
  <sodipodi:namedview
     pagecolor="#ffffff"
     bordercolor="#666666"
     borderopacity="1"
     objecttolerance="10"
     gridtolerance="10"
     guidetolerance="10"
     inkscape:pageopacity="0"
     inkscape:pageshadow="2"
     inkscape:window-width="1440"
     inkscape:window-height="846"
     id="namedview17"
     showgrid="false"
     inkscape:zoom="0.46214578"
     inkscape:cx="672.63076"
     inkscape:cy="222.41644"
     inkscape:window-x="0"
     inkscape:window-y="26"
     inkscape:window-maximized="1"
     inkscape:current-layer="g2987"
     showguides="true"
     inkscape:guide-bbox="true"
     fit-margin-top="0"
     fit-margin-left="0"
     fit-margin-right="0"
     fit-margin-bottom="0" />
  <metadata
     id="metadata8">
    <rdf:RDF>
      <cc:Work
         rdf:about="">
        <dc:format>image/svg+xml</dc:format>
        <dc:type
           rdf:resource="http://purl.org/dc/dcmitype/StillImage" />
        <dc:title></dc:title>
      </cc:Work>
    </rdf:RDF>
  </metadata>
  <defs
     id="defs6">
    <linearGradient
       id="linearGradient3841">
      <stop
         style="stop-color:#4f7800;stop-opacity:1;"
         offset="0"
         id="stop3843" />
      <stop
         style="stop-color:#8da40f;stop-opacity:0.66666669;"
         offset="1"
         id="stop3845" />
    </linearGradient>
    <linearGradient
       id="linearGradient3833">
      <stop
         style="stop-color:#000000;stop-opacity:1;"
         offset="0"
         id="stop3835" />
      <stop
         style="stop-color:#000000;stop-opacity:0;"
         offset="1"
         id="stop3837" />
    </linearGradient>
    <filter
       id="filter3012"
       inkscape:label="Chalk and sponge"
       inkscape:menu="Distort"
       inkscape:menu-tooltip="Low turbulence gives sponge look and high turbulence chalk"
       width="1.6"
       height="2"
       y="-0.5"
       x="-0.30000001"
       color-interpolation-filters="sRGB">
      <feTurbulence
         id="feTurbulence3014"
         baseFrequency="0.4"
         type="fractalNoise"
         seed="0"
         numOctaves="5"
         result="result1" />
      <feOffset
         id="feOffset3016"
         dx="-5"
         dy="-5"
         result="result2" />
      <feDisplacementMap
         id="feDisplacementMap3018"
         in2="result1"
         xChannelSelector="R"
         yChannelSelector="G"
         scale="30"
         in="SourceGraphic" />
    </filter>
    <filter
       id="filter3792"
       inkscape:label="Chalk and sponge"
       inkscape:menu="Distort"
       inkscape:menu-tooltip="Low turbulence gives sponge look and high turbulence chalk"
       width="1.6"
       height="2"
       y="-0.5"
       x="-0.30000001"
       color-interpolation-filters="sRGB">
      <feTurbulence
         id="feTurbulence3794"
         baseFrequency="0.4"
         type="fractalNoise"
         seed="0"
         numOctaves="5"
         result="result1" />
      <feOffset
         id="feOffset3796"
         dx="-5"
         dy="-5"
         result="result2" />
      <feDisplacementMap
         id="feDisplacementMap3798"
         in2="result1"
         xChannelSelector="R"
         yChannelSelector="G"
         scale="30"
         in="SourceGraphic" />
    </filter>
    <filter
       id="filter3800"
       inkscape:label="Chalk and sponge"
       inkscape:menu="Distort"
       inkscape:menu-tooltip="Low turbulence gives sponge look and high turbulence chalk"
       width="1.6"
       height="2"
       y="-0.5"
       x="-0.30000001"
       color-interpolation-filters="sRGB">
      <feTurbulence
         id="feTurbulence3802"
         baseFrequency="0.4"
         type="fractalNoise"
         seed="0"
         numOctaves="5"
         result="result1" />
      <feOffset
         id="feOffset3804"
         dx="-5"
         dy="-5"
         result="result2" />
      <feDisplacementMap
         id="feDisplacementMap3806"
         in2="result1"
         xChannelSelector="R"
         yChannelSelector="G"
         scale="30"
         in="SourceGraphic" />
    </filter>
    <filter
       id="filter3829"
       inkscape:label="Chalk and sponge"
       inkscape:menu="Distort"
       inkscape:menu-tooltip="Low turbulence gives sponge look and high turbulence chalk"
       width="1.6"
       height="2"
       y="-0.5"
       x="-0.30000001"
       color-interpolation-filters="sRGB">
      <feTurbulence
         id="feTurbulence3831"
         baseFrequency="0.4"
         type="fractalNoise"
         seed="0"
         numOctaves="5"
         result="result1" />
      <feOffset
         id="feOffset3833"
         dx="-5"
         dy="-5"
         result="result2" />
      <feDisplacementMap
         id="feDisplacementMap3835"
         in2="result1"
         xChannelSelector="R"
         yChannelSelector="G"
         scale="30"
         in="SourceGraphic" />
    </filter>
    <filter
       id="filter3837"
       inkscape:label="Chalk and sponge"
       inkscape:menu="Distort"
       inkscape:menu-tooltip="Low turbulence gives sponge look and high turbulence chalk"
       width="1.6"
       height="2"
       y="-0.5"
       x="-0.30000001"
       color-interpolation-filters="sRGB">
      <feTurbulence
         id="feTurbulence3839"
         baseFrequency="0.4"
         type="fractalNoise"
         seed="0"
         numOctaves="5"
         result="result1" />
      <feOffset
         id="feOffset3841"
         dx="-5"
         dy="-5"
         result="result2" />
      <feDisplacementMap
         id="feDisplacementMap3843"
         in2="result1"
         xChannelSelector="R"
         yChannelSelector="G"
         scale="30"
         in="SourceGraphic" />
    </filter>
    <filter
       id="filter3845"
       inkscape:label="Chalk and sponge"
       inkscape:menu="Distort"
       inkscape:menu-tooltip="Low turbulence gives sponge look and high turbulence chalk"
       width="1.6"
       height="2"
       y="-0.5"
       x="-0.30000001"
       color-interpolation-filters="sRGB">
      <feTurbulence
         id="feTurbulence3847"
         baseFrequency="0.4"
         type="fractalNoise"
         seed="0"
         numOctaves="5"
         result="result1" />
      <feOffset
         id="feOffset3849"
         dx="-5"
         dy="-5"
         result="result2" />
      <feDisplacementMap
         id="feDisplacementMap3851"
         in2="result1"
         xChannelSelector="R"
         yChannelSelector="G"
         scale="30"
         in="SourceGraphic" />
    </filter>
    <filter
       id="filter3829-5"
       inkscape:label="Chalk and sponge"
       inkscape:menu="Distort"
       inkscape:menu-tooltip="Low turbulence gives sponge look and high turbulence chalk"
       width="1.6"
       height="2"
       y="-0.5"
       x="-0.30000001"
       color-interpolation-filters="sRGB">
      <feTurbulence
         id="feTurbulence3831-3"
         baseFrequency="0.4"
         type="fractalNoise"
         seed="0"
         numOctaves="5"
         result="result1" />
      <feOffset
         id="feOffset3833-2"
         dx="-5"
         dy="-5"
         result="result2" />
      <feDisplacementMap
         id="feDisplacementMap3835-4"
         in2="result1"
         xChannelSelector="R"
         yChannelSelector="G"
         scale="30"
         in="SourceGraphic" />
    </filter>
    <filter
       id="filter4024"
       inkscape:label="Roughen"
       inkscape:menu="ABCs"
       inkscape:menu-tooltip="Small-scale roughening to edges and content"
       color-interpolation-filters="sRGB">
      <feTurbulence
         id="feTurbulence4026"
         numOctaves="3"
         seed="0"
         type="turbulence"
         baseFrequency="0.04"
         result="result91" />
      <feDisplacementMap
         id="feDisplacementMap4028"
         in2="result91"
         scale="6.6"
         yChannelSelector="G"
         xChannelSelector="R"
         in="SourceGraphic" />
    </filter>
    <filter
       id="filter4030"
       inkscape:label="Roughen"
       inkscape:menu="ABCs"
       inkscape:menu-tooltip="Small-scale roughening to edges and content"
       color-interpolation-filters="sRGB">
      <feTurbulence
         id="feTurbulence4032"
         numOctaves="3"
         seed="0"
         type="turbulence"
         baseFrequency="0.04"
         result="result91" />
      <feDisplacementMap
         id="feDisplacementMap4034"
         in2="result91"
         scale="6.6"
         yChannelSelector="G"
         xChannelSelector="R"
         in="SourceGraphic" />
    </filter>
    <filter
       id="filter4036"
       inkscape:label="Roughen"
       inkscape:menu="ABCs"
       inkscape:menu-tooltip="Small-scale roughening to edges and content"
       color-interpolation-filters="sRGB">
      <feTurbulence
         id="feTurbulence4038"
         numOctaves="3"
         seed="0"
         type="turbulence"
         baseFrequency="0.04"
         result="result91" />
      <feDisplacementMap
         id="feDisplacementMap4040"
         in2="result91"
         scale="6.6"
         yChannelSelector="G"
         xChannelSelector="R"
         in="SourceGraphic" />
    </filter>
    <filter
       id="filter4048"
       inkscape:label="Evanescent"
       inkscape:menu="Blurs"
       inkscape:menu-tooltip="Blur the contents of objects, preserving the outline and adding progressive transparency at edges"
       color-interpolation-filters="sRGB">
      <feGaussianBlur
         id="feGaussianBlur4050"
         result="result6"
         stdDeviation="3"
         in="SourceGraphic" />
      <feColorMatrix
         id="feColorMatrix4052"
         values="1 0 0 0 0 0 1 0 0 0 0 0 1 0 0 0 0 0 1 0 "
         result="result7"
         in="SourceGraphic" />
      <feComposite
         id="feComposite4054"
         in2="result7"
         operator="in"
         in="result6" />
    </filter>
    <filter
       id="filter4056"
       inkscape:label="Evanescent"
       inkscape:menu="Blurs"
       inkscape:menu-tooltip="Blur the contents of objects, preserving the outline and adding progressive transparency at edges"
       color-interpolation-filters="sRGB">
      <feGaussianBlur
         id="feGaussianBlur4058"
         result="result6"
         stdDeviation="3"
         in="SourceGraphic" />
      <feColorMatrix
         id="feColorMatrix4060"
         values="1 0 0 0 0 0 1 0 0 0 0 0 1 0 0 0 0 0 1 0 "
         result="result7"
         in="SourceGraphic" />
      <feComposite
         id="feComposite4062"
         in2="result7"
         operator="in"
         in="result6" />
    </filter>
    <filter
       id="filter4097"
       inkscape:label="Evanescent"
       inkscape:menu="Blurs"
       inkscape:menu-tooltip="Blur the contents of objects, preserving the outline and adding progressive transparency at edges"
       color-interpolation-filters="sRGB">
      <feGaussianBlur
         id="feGaussianBlur4099"
         result="result6"
         stdDeviation="3"
         in="SourceGraphic" />
      <feColorMatrix
         id="feColorMatrix4101"
         values="1 0 0 0 0 0 1 0 0 0 0 0 1 0 0 0 0 0 1 0 "
         result="result7"
         in="SourceGraphic" />
      <feComposite
         in2="result7"
         id="feComposite4103"
         operator="in"
         in="result6" />
    </filter>
    <filter
       id="filter4208"
       inkscape:label="Evanescent"
       inkscape:menu="Blurs"
       inkscape:menu-tooltip="Blur the contents of objects, preserving the outline and adding progressive transparency at edges"
       color-interpolation-filters="sRGB">
      <feGaussianBlur
         id="feGaussianBlur4210"
         result="result6"
         stdDeviation="3"
         in="SourceGraphic" />
      <feColorMatrix
         id="feColorMatrix4212"
         values="1 0 0 0 0 0 1 0 0 0 0 0 1 0 0 0 0 0 1 0 "
         result="result7"
         in="SourceGraphic" />
      <feComposite
         id="feComposite4214"
         in2="result7"
         operator="in"
         in="result6" />
    </filter>
    <linearGradient
       inkscape:collect="always"
       xlink:href="#linearGradient3833"
       id="linearGradient3839"
       x1="485.39291"
       y1="179.21912"
       x2="416.8584"
       y2="-15.208565"
       gradientUnits="userSpaceOnUse"
       gradientTransform="matrix(7.5639146,0,0,7.5639146,-6350.3944,280.73393)" />
    <linearGradient
       inkscape:collect="always"
       xlink:href="#linearGradient3841"
       id="linearGradient3847"
       x1="402.31332"
       y1="-177.66327"
       x2="426.04044"
       y2="-159.29214"
       gradientUnits="userSpaceOnUse" />
    <linearGradient
       inkscape:collect="always"
       xlink:href="#linearGradient3833"
       id="linearGradient3888"
       gradientUnits="userSpaceOnUse"
       gradientTransform="matrix(7.5639146,0,0,7.5639146,-6350.3944,280.73393)"
       x1="485.39291"
       y1="179.21912"
       x2="416.8584"
       y2="-15.208565" />
    <linearGradient
       inkscape:collect="always"
       xlink:href="#linearGradient3841"
       id="linearGradient3890"
       gradientUnits="userSpaceOnUse"
       x1="402.31332"
       y1="-177.66327"
       x2="426.04044"
       y2="-159.29214" />
  </defs>
  <g
     transform="translate(3486.6234,-198.07016)"
     id="g2987">
    <g
       id="g3881"
       transform="matrix(0.99366293,0,0,0.99361696,-36.04726,-49.960419)">
      <path
         style="fill:#ffffff;fill-opacity:1;stroke:#8a8a8a;stroke-width:7.56391478;stroke-opacity:1"
         d="m -3406.377,321.86271 c -4.929,0.14909 -10.103,0.64138 -15.6006,1.41824 -58.9711,8.33301 -62.8018,53.69532 -5.2002,61.4568 26.1228,3.51987 30.1135,7.71308 57.6749,60.51132 21.315,40.83251 41.6352,102.30043 72.3299,219.35352 23.4546,89.44329 47.3296,170.28263 53.1838,179.64297 l 10.6367,17.01881 225.0265,0 225.0265,0 21.9826,-81.31208 c 11.9887,-44.72164 27.731,-101.73465 35.2195,-126.69557 36.0702,-120.23099 59.7362,-203.58253 53.8929,-209.42588 -197.5992,-10.17165 -198.4691,-12.09622 -638.4417,-15.36421 0,8.81416 -12.5203,-37.60854 -22.219,-57.2021 -17.6385,-35.63413 -39.009,-50.44538 -73.5118,-49.40182 z m 522.6192,576.03937 c -31.3305,2.86831 -53.745,39.94289 -29.7829,66.42063 7.3781,8.15269 22.374,14.65508 33.5649,14.65508 45.516,0 59.8967,-58.38253 18.9098,-77.05738 -7.7154,-3.51533 -15.4617,-4.68024 -22.6918,-4.01833 z m -263.0824,3.30922 c -31.3305,2.8683 -53.745,39.70651 -29.7829,66.18425 7.3781,8.15269 22.6104,14.89146 33.8012,14.89146 45.5161,0 59.6603,-58.38253 18.6735,-77.05738 -7.7154,-3.51534 -15.4617,-4.68025 -22.6918,-4.01833 z"
         id="path3879"
         inkscape:connector-curvature="0" />
      <path
         inkscape:connector-curvature="0"
         id="path3001"
         d="m -3406.377,321.86271 c -4.929,0.14909 -10.103,0.64138 -15.6006,1.41824 -58.9711,8.33301 -62.8018,53.69532 -5.2002,61.4568 26.1228,3.51987 30.1135,7.71308 57.6749,60.51132 21.315,40.83251 41.6352,102.30043 72.3299,219.35352 23.4546,89.44329 47.3296,170.28263 53.1838,179.64297 l 10.6367,17.01881 225.0265,0 225.0265,0 21.9826,-81.31208 c 11.9887,-44.72164 27.731,-101.73465 35.2195,-126.69557 36.0702,-120.23099 59.7362,-203.58253 53.8929,-209.42588 -197.5992,-10.17165 -198.4691,-12.09622 -638.4417,-15.36421 0,8.81416 -12.5203,-37.60854 -22.219,-57.2021 -17.6385,-35.63413 -39.009,-50.44538 -73.5118,-49.40182 z m 522.6192,576.03937 c -31.3305,2.86831 -53.745,39.94289 -29.7829,66.42063 7.3781,8.15269 22.374,14.65508 33.5649,14.65508 45.516,0 59.8967,-58.38253 18.9098,-77.05738 -7.7154,-3.51533 -15.4617,-4.68024 -22.6918,-4.01833 z m -263.0824,3.30922 c -31.3305,2.8683 -53.745,39.70651 -29.7829,66.18425 7.3781,8.15269 22.6104,14.89146 33.8012,14.89146 45.5161,0 59.6603,-58.38253 18.6735,-77.05738 -7.7154,-3.51534 -15.4617,-4.68025 -22.6918,-4.01833 z"
         style="fill:url(#linearGradient3888);fill-opacity:1;stroke:#8a8a8a;stroke-width:7.56391478;stroke-opacity:1" />
      <g
         id="g3005"
         transform="matrix(7.5639146,0,0,7.5639146,-6110.4314,1925.2302)">
        <path
           inkscape:connector-curvature="0"
           style="fill:url(#linearGradient3890);fill-opacity:1"
           id="path2991"
           d="m 397.56786,-159.25387 -2.52641,-8.41386 1.93012,-6.25778 3.71435,-7.90477 6.8882,-2.50134 c 10.03912,-3.64554 11.57411,-3.23212 16.98751,2.00053 4.41504,4.26764 3.72417,4.9653 4.65883,13.83826 1.56141,14.82283 3.87208,10.50422 -5.918,13.49038 -4.71974,1.43961 -7.94932,3.52398 -8.26721,3.20609 2.08396,-2.10212 0.71946,-3.28254 2.47299,-7.76235 1.75352,-4.4798 3.60086,-9.72257 1.97784,-10.17899 -0.25054,-0.25053 -3.36142,4.04128 -5.31948,8.27923 -2.73774,5.92548 -2.14432,6.39737 -3.37094,5.92667 -0.87728,-0.33664 -1.86908,-0.40621 -2.45561,-0.40621 -0.71779,0 -1.52383,-0.60028 -0.72402,-5.94127 0.95692,-6.39011 0.42727,-11.01947 -2.458,-10.2646 -0.46766,0.12235 -1.17533,5.65311 -1.53761,10.46561 -0.36228,4.8125 0.0876,9.79458 -0.98976,9.1765 -3.12104,-1.79048 -4.1301,-3.64589 -5.0628,-6.7521 z" />
        <path
           inkscape:connector-curvature="0"
           id="path2989"
           d="m 400.71141,-151.74689 c -2.57994,-3.77614 -4.40616,-8.01578 -6.18899,-12.21139 -0.62157,-1.62824 -1.51634,-3.40077 -0.67565,-5.13268 1.50892,-4.88331 3.79821,-9.46729 5.81106,-14.15235 6.1431,-1.7892 12.21896,-3.84897 18.47915,-5.19997 1.90409,-0.0111 3.24238,1.824 4.68275,2.87673 2.30405,2.13183 4.44441,4.43193 6.6641,6.65032 0.67261,7.15257 1.46136,14.29612 1.96242,21.46322 -0.8175,1.85319 -3.25156,2.24731 -4.92895,3.07637 -3.98792,1.41817 -8.02428,2.81081 -12.202,3.54281 -1.39714,-0.42318 0.32773,-2.89029 0.43367,-4.06095 1.42072,-4.34493 3.61299,-8.46706 4.4386,-12.98861 -0.77447,-0.54478 -1.67523,2.19448 -2.2618,2.94412 -1.93332,3.52747 -3.27131,7.33644 -5.02498,10.94469 -1.12821,1.71858 -3.09882,-0.63185 -4.6543,-0.50231 -1.17375,-1.48698 -0.47258,-3.84527 -0.56338,-5.67413 0.15808,-3.32234 0.75061,-6.69479 0.1654,-9.99795 -1.05887,-0.6998 -1.07893,2.57034 -1.37607,3.41129 -0.77632,4.97011 -0.63477,10.08641 -1.91884,14.97371 -0.39133,2.03782 -2.00547,1.40962 -2.84219,0.0371 z m 25.0284,-5.6617 c 2.47423,-0.42506 2.08525,-3.25136 1.8754,-5.08713 -0.46511,-4.19036 -0.86999,-8.39379 -1.2139,-12.59108 -1.34843,-4.18441 -4.70405,-7.20129 -7.42926,-10.50525 -5.67637,1.76123 -11.35273,3.52247 -17.0291,5.2837 -1.78454,4.27412 -3.56908,8.54825 -5.35361,12.82237 1.44351,3.16303 2.88702,6.32606 4.33052,9.48909 0.55208,-4.71998 0.87434,-9.47268 1.66813,-14.15981 0.0145,-2.50502 2.71061,-2.69676 4.55018,-2.0645 2.20917,0.60074 2.382,3.24719 2.47922,5.14928 0.099,3.69134 -0.072,7.38349 -0.1138,11.07503 2.12307,-3.94948 3.95887,-8.06916 6.45198,-11.80623 0.89537,-1.23832 2.30778,-3.08237 4.05152,-2.31128 1.83009,0.76008 2.31537,2.88391 1.67555,4.61674 -0.94761,3.81836 -2.40998,7.50097 -3.19769,11.35918 1.46808,1.03781 3.69582,-0.25226 5.36025,-0.59373 0.63647,-0.21132 1.26775,-0.43811 1.89461,-0.67638 z"
           style="fill:#090b07" />
      </g>
    </g>
    <g
       transform="matrix(1.2791206,-0.46683306,0.25178656,0.68989407,0,0)"
       style="font-size:178.59382629px;font-style:normal;font-variant:normal;font-weight:normal;font-stretch:normal;line-height:125%;letter-spacing:0px;word-spacing:0px;fill:#800000;fill-opacity:1;stroke:none;filter:url(#filter3012);font-family:Comfortaa;-inkscape-font-specification:Comfortaa"
       id="text3053" />
  </g>
</svg>
