<?xml version="1.0" encoding="UTF-8" standalone="no"?>
<!-- Created with Inkscape (http://www.inkscape.org/) -->

<svg
   xmlns:dc="http://purl.org/dc/elements/1.1/"
   xmlns:cc="http://creativecommons.org/ns#"
   xmlns:rdf="http://www.w3.org/1999/02/22-rdf-syntax-ns#"
   xmlns:svg="http://www.w3.org/2000/svg"
   xmlns="http://www.w3.org/2000/svg"
   xmlns:xlink="http://www.w3.org/1999/xlink"
   version="1.0"
   width="60.077457"
   height="60.038727"
   id="svg2408"
   style="display:inline">
  <defs
     id="defs2410">
    <linearGradient
       id="linearGradient3932">
      <stop
         id="stop3934"
         style="stop-color:#000000;stop-opacity:1"
         offset="0" />
      <stop
         id="stop3936"
         style="stop-color:#000000;stop-opacity:0"
         offset="1" />
    </linearGradient>
    <linearGradient
       id="linearGradient3865">
      <stop
         id="stop3867"
         style="stop-color:#ffe99d;stop-opacity:1"
         offset="0" />
      <stop
         id="stop3869"
         style="stop-color:#ffe99d;stop-opacity:0"
         offset="1" />
    </linearGradient>
    <linearGradient
       id="linearGradient3777">
      <stop
         id="stop3779"
         style="stop-color:#ff6600;stop-opacity:1"
         offset="0" />
      <stop
         id="stop3781"
         style="stop-color:#ff6600;stop-opacity:0"
         offset="1" />
    </linearGradient>
    <linearGradient
       id="linearGradient3751">
      <stop
         id="stop3753"
         style="stop-color:#f89400;stop-opacity:1"
         offset="0" />
      <stop
         id="stop3755"
         style="stop-color:#f89400;stop-opacity:0"
         offset="1" />
    </linearGradient>
    <linearGradient
       id="linearGradient3741">
      <stop
         id="stop3743"
         style="stop-color:#ffffff;stop-opacity:1"
         offset="0" />
      <stop
         id="stop3745"
         style="stop-color:#ffffff;stop-opacity:0"
         offset="1" />
    </linearGradient>
    <linearGradient
       id="linearGradient3724">
      <stop
         id="stop3726"
         style="stop-color:#ffa92a;stop-opacity:1"
         offset="0" />
      <stop
         id="stop3728"
         style="stop-color:#ffcf2a;stop-opacity:1"
         offset="1" />
    </linearGradient>
    <linearGradient
       x1="45.447727"
       y1="92.539597"
       x2="45.447727"
       y2="7.0165396"
       id="ButtonShadow"
       gradientUnits="userSpaceOnUse"
       gradientTransform="scale(1.0058652,0.994169)">
      <stop
         id="stop3750"
         style="stop-color:#000000;stop-opacity:1"
         offset="0" />
      <stop
         id="stop3752"
         style="stop-color:#000000;stop-opacity:0.58823532"
         offset="1" />
    </linearGradient>
    <linearGradient
       id="linearGradient3737">
      <stop
         id="stop3739"
         style="stop-color:#ffffff;stop-opacity:1"
         offset="0" />
      <stop
         id="stop3741"
         style="stop-color:#ffffff;stop-opacity:0"
         offset="1" />
    </linearGradient>
    <linearGradient
       id="linearGradient3700">
      <stop
         id="stop3702"
         style="stop-color:#70a83e;stop-opacity:1"
         offset="0" />
      <stop
         id="stop3704"
         style="stop-color:#9fd058;stop-opacity:1"
         offset="1" />
    </linearGradient>
    <filter
       color-interpolation-filters="sRGB"
       id="filter3174">
      <feGaussianBlur
         stdDeviation="1.71"
         id="feGaussianBlur3176" />
    </filter>
    <linearGradient
       x1="36.357143"
       y1="6"
       x2="36.357143"
       y2="63.893143"
       id="linearGradient3188"
       xlink:href="#linearGradient3737"
       gradientUnits="userSpaceOnUse" />
    <filter
       x="-0.192"
       y="-0.192"
       width="1.3839999"
       height="1.3839999"
       color-interpolation-filters="sRGB"
       id="filter3794">
      <feGaussianBlur
         stdDeviation="5.28"
         id="feGaussianBlur3796" />
    </filter>
    <linearGradient
       x1="48"
       y1="20.220806"
       x2="48"
       y2="138.66119"
       id="linearGradient3613"
       xlink:href="#linearGradient3737"
       gradientUnits="userSpaceOnUse" />
    <radialGradient
       cx="48"
       cy="90.171875"
       r="42"
       fx="48"
       fy="90.171875"
       id="radialGradient3619"
       xlink:href="#linearGradient3737"
       gradientUnits="userSpaceOnUse"
       gradientTransform="matrix(1.1573129,0,0,0.99590774,-7.5510206,0.19713193)" />
    <clipPath
       id="clipPath3613">
      <rect
         width="84"
         height="84"
         rx="6"
         ry="6"
         x="6"
         y="6"
         id="rect3615"
         style="fill:#ffffff;fill-opacity:1;fill-rule:nonzero;stroke:none" />
    </clipPath>
    <linearGradient
       x1="48"
       y1="90"
       x2="48"
       y2="5.9877172"
       id="linearGradient3617"
       xlink:href="#linearGradient3700"
       gradientUnits="userSpaceOnUse" />
    <linearGradient
       id="linearGradient5128">
      <stop
         id="stop5130"
         style="stop-color:#e5e5e5;stop-opacity:1"
         offset="0" />
      <stop
         id="stop5132"
         style="stop-color:#ababab;stop-opacity:1"
         offset="1" />
    </linearGradient>
    <linearGradient
       x1="63.9995"
       y1="3.1001"
       x2="63.9995"
       y2="122.8994"
       id="linearGradient3309"
       gradientUnits="userSpaceOnUse">
      <stop
         id="stop3311"
         style="stop-color:#f6f6f6;stop-opacity:1"
         offset="0" />
      <stop
         id="stop3313"
         style="stop-color:#d2d2d2;stop-opacity:1"
         offset="1" />
    </linearGradient>
    <linearGradient
       id="linearGradient3397">
      <stop
         id="stop3399"
         style="stop-color:#aaaaaa;stop-opacity:1"
         offset="0" />
      <stop
         id="stop3401"
         style="stop-color:#8c8c8c;stop-opacity:1"
         offset="1" />
    </linearGradient>
    <linearGradient
       x1="86.132919"
       y1="105.105"
       x2="84.63858"
       y2="20.895"
       id="linearGradient3801"
       xlink:href="#linearGradient5128"
       gradientUnits="userSpaceOnUse"
       gradientTransform="matrix(0.41503146,0,0,0.41503146,21.437996,21.853023)" />
    <linearGradient
       x1="20.758585"
       y1="1"
       x2="20.758585"
       y2="45.017357"
       id="linearGradient3804"
       xlink:href="#linearGradient3309"
       gradientUnits="userSpaceOnUse"
       gradientTransform="matrix(1.2790652,0,0,1.2790652,17.302433,18.5815)" />
    <linearGradient
       x1="37.201294"
       y1="1"
       x2="37.201294"
       y2="45"
       id="linearGradient3806"
       xlink:href="#linearGradient3397"
       gradientUnits="userSpaceOnUse"
       gradientTransform="matrix(1.2790652,0,0,1.2790652,17.302433,18.5815)" />
    <filter
       color-interpolation-filters="sRGB"
       id="filter3814">
      <feGaussianBlur
         stdDeviation="2.1999956"
         id="feGaussianBlur3816" />
    </filter>
    <linearGradient
       x1="48"
       y1="90"
       x2="48"
       y2="5.9877172"
       id="linearGradient3878"
       xlink:href="#linearGradient3700"
       gradientUnits="userSpaceOnUse" />
    <linearGradient
       id="linearGradient3700-4">
      <stop
         id="stop3702-4"
         style="stop-color:#70a83e;stop-opacity:1"
         offset="0" />
      <stop
         id="stop3704-4"
         style="stop-color:#9fd058;stop-opacity:1"
         offset="1" />
    </linearGradient>
    <clipPath
       id="clipPath2973">
      <rect
         width="84"
         height="84"
         rx="6"
         ry="6"
         x="6"
         y="6"
         id="rect2975"
         style="fill:url(#linearGradient2977);fill-opacity:1;fill-rule:nonzero;stroke:none" />
    </clipPath>
    <linearGradient
       x1="48"
       y1="90"
       x2="48"
       y2="5.9877172"
       id="linearGradient2977"
       xlink:href="#linearGradient3700-4"
       gradientUnits="userSpaceOnUse" />
    <linearGradient
       x1="52.51516"
       y1="44.039856"
       x2="54.767216"
       y2="64.307716"
       id="linearGradient3747"
       xlink:href="#linearGradient3741"
       gradientUnits="userSpaceOnUse" />
    <radialGradient
       cx="48.089584"
       cy="53.8909"
       r="5.4927044"
       fx="48.089584"
       fy="53.8909"
       id="radialGradient3791"
       xlink:href="#linearGradient3777"
       gradientUnits="userSpaceOnUse"
       gradientTransform="matrix(-0.01155242,1.9830883,-2.0305783,-0.02269268,158.07483,-40.252061)" />
    <linearGradient
       x1="64.669502"
       y1="71.888321"
       x2="59.574085"
       y2="52.871964"
       id="linearGradient3800"
       xlink:href="#linearGradient3724"
       gradientUnits="userSpaceOnUse" />
    <radialGradient
       cx="47.644325"
       cy="54.10635"
       r="4.8616066"
       fx="47.644325"
       fy="54.10635"
       id="radialGradient3811"
       xlink:href="#linearGradient3751"
       gradientUnits="userSpaceOnUse"
       gradientTransform="matrix(2.3125312,2.3348434,1.2717514,-1.2595982,-125.14605,4.532606)" />
    <linearGradient
       x1="60.755741"
       y1="66.836105"
       x2="69.693596"
       y2="69.230995"
       id="linearGradient3871"
       xlink:href="#linearGradient3865"
       gradientUnits="userSpaceOnUse"
       gradientTransform="matrix(0.5,0.8660254,-0.8660254,0.5,91.523702,-24.523702)" />
    <linearGradient
       x1="32.237946"
       y1="21.650217"
       x2="36.821369"
       y2="47.535378"
       id="linearGradient3879"
       xlink:href="#linearGradient3309"
       gradientUnits="userSpaceOnUse" />
    <linearGradient
       x1="5.2744913"
       y1="62.878765"
       x2="-6.5244856"
       y2="66.807335"
       id="linearGradient3887"
       xlink:href="#linearGradient5128"
       gradientUnits="userSpaceOnUse" />
    <linearGradient
       x1="5.2744913"
       y1="62.878765"
       x2="-6.5244856"
       y2="66.807335"
       id="linearGradient3916"
       xlink:href="#linearGradient5128"
       gradientUnits="userSpaceOnUse"
       gradientTransform="matrix(0.44988627,0,0,0.44988627,-7.7869415e-6,-94.532869)" />
    <linearGradient
       x1="45.312279"
       y1="48.267761"
       x2="42.662289"
       y2="45.617771"
       id="linearGradient3938"
       xlink:href="#linearGradient3932"
       gradientUnits="userSpaceOnUse"
       gradientTransform="matrix(-1,0,0,-1,91.080609,91.12006)" />
    <linearGradient
       id="linearGradient3224">
      <stop
         id="stop3226"
         style="stop-color:#80a2c8;stop-opacity:1"
         offset="0" />
      <stop
         id="stop3228"
         style="stop-color:#2e4c6d;stop-opacity:1"
         offset="1" />
    </linearGradient>
    <linearGradient
       x1="48"
       y1="90"
       x2="48"
       y2="5.9877172"
       id="linearGradient3757"
       xlink:href="#linearGradient3224"
       gradientUnits="userSpaceOnUse"
       gradientTransform="translate(0,-96)" />
    <linearGradient
       x1="32.251034"
       y1="6.1317081"
       x2="32.251034"
       y2="90.238609"
       id="linearGradient3721"
       xlink:href="#ButtonShadow-0"
       gradientUnits="userSpaceOnUse"
       gradientTransform="translate(0,-97)" />
    <linearGradient
       x1="45.447727"
       y1="92.539597"
       x2="45.447727"
       y2="7.0165396"
       id="ButtonShadow-0"
       gradientUnits="userSpaceOnUse"
       gradientTransform="matrix(1.0058652,0,0,0.994169,100,0)">
      <stop
         id="stop3750-8"
         style="stop-color:#000000;stop-opacity:1"
         offset="0" />
      <stop
         id="stop3752-5"
         style="stop-color:#000000;stop-opacity:0.58823532"
         offset="1" />
    </linearGradient>
    <linearGradient
       x1="32.251034"
       y1="6.1317081"
       x2="32.251034"
       y2="90.238609"
       id="linearGradient3725"
       xlink:href="#ButtonShadow-0"
       gradientUnits="userSpaceOnUse"
       gradientTransform="matrix(1.0238095,0,0,1.0119048,-1.1428571,-98.071429)" />
    <linearGradient
       x1="32.251034"
       y1="6.1317081"
       x2="32.251034"
       y2="90.238609"
       id="linearGradient3772"
       xlink:href="#ButtonShadow-0"
       gradientUnits="userSpaceOnUse"
       gradientTransform="matrix(1.0238095,0,0,1.0119048,-1.1428571,-98.071429)" />
    <linearGradient
       x1="32.251034"
       y1="6.1317081"
       x2="32.251034"
       y2="90.238609"
       id="linearGradient3780"
       xlink:href="#ButtonShadow-0"
       gradientUnits="userSpaceOnUse"
       gradientTransform="matrix(1.0238095,0,0,1.0119048,-1.1428571,-98.071429)" />
    <linearGradient
       x1="32.251034"
       y1="6.1317081"
       x2="32.251034"
       y2="90.238609"
       id="linearGradient2969"
       xlink:href="#ButtonShadow-0"
       gradientUnits="userSpaceOnUse"
       gradientTransform="matrix(1.0238095,0,0,1.0119048,-1.1428571,-98.071429)" />
  </defs>
  <metadata
     id="metadata2413">
    <rdf:RDF>
      <cc:Work
         rdf:about="">
        <dc:format>image/svg+xml</dc:format>
        <dc:type
           rdf:resource="http://purl.org/dc/dcmitype/StillImage" />
        <dc:title></dc:title>
      </cc:Work>
    </rdf:RDF>
  </metadata>
  <g
     transform="translate(-17.924528,-18.968268)"
     id="layer2"
     style="display:none">
    <rect
       width="86"
       height="85"
       rx="6"
       ry="6"
       x="5"
       y="7"
       id="rect3745"
       style="opacity:0.9;fill:url(#ButtonShadow);fill-opacity:1;fill-rule:nonzero;stroke:none;filter:url(#filter3174)" />
  </g>
  <g
     transform="translate(-17.924528,-18.968268)"
     id="layer6"
     style="display:none">
    <path
       d="m 44.202778,21.500099 c -1.082262,0 -1.958577,0.897784 -1.958577,1.998539 l 0,3.877166 c -1.935147,0.515597 -3.784186,1.294397 -5.475994,2.278335 l -2.757989,-2.757984 c -0.389179,-0.389176 -0.855369,-0.595295 -1.359003,-0.599563 -0.503633,-0.0043 -1.016343,0.176957 -1.398974,0.559591 l -5.396062,5.396057 c -0.765262,0.76527 -0.738376,1.979633 0.03989,2.757985 l 2.757989,2.757984 c -0.983934,1.691803 -1.76273,3.540846 -2.27834,5.475997 l -3.877162,0 c -1.100753,0 -1.998541,0.876313 -1.998541,1.958569 l 0,7.59445 c 0,1.082256 0.897788,1.958569 1.998541,1.958569 l 3.877162,0 c 0.51561,1.935152 1.294406,3.784195 2.27834,5.475998 l -2.757989,2.757984 c -0.778348,0.77835 -0.805234,1.992713 -0.03989,2.757984 l 5.396062,5.396057 c 0.765262,0.76527 1.979629,0.738377 2.757977,-0.03997 l 2.757989,-2.757984 c 1.691808,0.983939 3.540847,1.762736 5.475994,2.278334 l 0,3.877167 c 0,1.100754 0.876315,1.99854 1.958577,1.99854 l 7.594448,0 c 1.082252,0 1.958566,-0.897786 1.958566,-1.99854 l 0,-3.877167 c 1.935147,-0.515598 3.784186,-1.294395 5.475995,-2.278334 l 2.757988,2.757984 c 0.778348,0.77835 1.992715,0.805242 2.757988,0.03997 l 5.396051,-5.396057 c 0.765263,-0.76527 0.738377,-1.979634 -0.03989,-2.757984 l -2.757977,-2.757984 c 0.983933,-1.691803 1.762729,-3.540846 2.278328,-5.475998 l 3.877173,0 c 1.100744,0 1.998538,-0.876312 1.998538,-1.958569 l 0,-7.59445 c 0,-1.082255 -0.897794,-1.958569 -1.998538,-1.958569 l -3.877173,0 C 69.10868,41.309055 68.329884,39.460012 67.345951,37.768209 l 2.757977,-2.757984 c 0.778348,-0.778351 0.805245,-1.992715 0.03989,-2.757985 l -5.396051,-5.396057 c -0.765273,-0.76527 -1.97964,-0.738379 -2.757988,0.03997 l -2.757988,2.757984 c -1.691809,-0.983938 -3.540848,-1.762738 -5.475995,-2.278335 l 0,-3.877166 c 0,-1.100755 -0.876314,-1.998539 -1.958566,-1.998539 l -7.594448,0 z m 3.797219,19.185977 c 4.589292,0 8.313926,3.724638 8.313926,8.313924 0,4.589287 -3.724634,8.313924 -8.313926,8.313924 -4.589282,0 -8.313926,-3.724637 -8.313926,-8.313924 0,-4.589286 3.724644,-8.313924 8.313926,-8.313924 z"
       id="path3808"
       style="fill:#000000;fill-opacity:1;fill-rule:nonzero;stroke:none;stroke-width:1;marker:none;visibility:visible;display:block;overflow:visible;filter:url(#filter3814);enable-background:accumulate" />
    <path
       d="m 44.202778,20.500099 c -1.082262,0 -1.958577,0.897784 -1.958577,1.998539 l 0,3.877166 c -1.935147,0.515597 -3.784186,1.294397 -5.475994,2.278335 l -2.757989,-2.757984 c -0.389179,-0.389176 -0.855369,-0.595295 -1.359003,-0.599563 -0.503633,-0.0043 -1.016343,0.176957 -1.398974,0.559591 l -5.396062,5.396057 c -0.765262,0.76527 -0.738376,1.979633 0.03989,2.757985 l 2.757989,2.757984 c -0.983934,1.691803 -1.76273,3.540846 -2.27834,5.475997 l -3.877162,0 c -1.100753,0 -1.998541,0.876313 -1.998541,1.958569 l 0,7.59445 c 0,1.082256 0.897788,1.958569 1.998541,1.958569 l 3.877162,0 c 0.51561,1.935152 1.294406,3.784195 2.27834,5.475998 l -2.757989,2.757984 c -0.778348,0.77835 -0.805234,1.992713 -0.03989,2.757984 l 5.396062,5.396057 c 0.765262,0.76527 1.979629,0.738377 2.757977,-0.03997 l 2.757989,-2.757984 c 1.691808,0.983939 3.540847,1.762736 5.475994,2.278334 l 0,3.877167 c 0,1.100754 0.876315,1.99854 1.958577,1.99854 l 7.594448,0 c 1.082252,0 1.958566,-0.897786 1.958566,-1.99854 l 0,-3.877167 c 1.935147,-0.515598 3.784186,-1.294395 5.475995,-2.278334 l 2.757988,2.757984 c 0.778348,0.77835 1.992715,0.805242 2.757988,0.03997 l 5.396051,-5.396057 c 0.765263,-0.76527 0.738377,-1.979634 -0.03989,-2.757984 l -2.757977,-2.757984 c 0.983933,-1.691803 1.762729,-3.540846 2.278328,-5.475998 l 3.877173,0 c 1.100744,0 1.998538,-0.876312 1.998538,-1.958569 l 0,-7.59445 c 0,-1.082255 -0.897794,-1.958569 -1.998538,-1.958569 l -3.877173,0 C 69.10868,40.309055 68.329884,38.460012 67.345951,36.768209 l 2.757977,-2.757984 c 0.778348,-0.778351 0.805245,-1.992715 0.03989,-2.757985 l -5.396051,-5.396057 c -0.765273,-0.76527 -1.97964,-0.738379 -2.757988,0.03997 l -2.757988,2.757984 c -1.691809,-0.983938 -3.540848,-1.762738 -5.475995,-2.278335 l 0,-3.877166 c 0,-1.100755 -0.876314,-1.998539 -1.958566,-1.998539 l -7.594448,0 z m 3.797219,19.185977 c 4.589292,0 8.313926,3.724638 8.313926,8.313924 0,4.589287 -3.724634,8.313924 -8.313926,8.313924 -4.589282,0 -8.313926,-3.724637 -8.313926,-8.313924 0,-4.589286 3.724644,-8.313924 8.313926,-8.313924 z"
       id="rect3267"
       style="fill:url(#linearGradient3804);fill-opacity:1;fill-rule:nonzero;stroke:url(#linearGradient3806);stroke-width:1;stroke-linecap:butt;stroke-linejoin:round;stroke-miterlimit:4;stroke-opacity:1;stroke-dasharray:none;stroke-dashoffset:0;marker:none;visibility:visible;display:block;overflow:visible;enable-background:accumulate" />
    <path
       d="m 47.999997,30.732619 c -9.521233,0 -17.267377,7.746146 -17.267377,17.267381 0,9.521234 7.746144,17.267381 17.267377,17.267381 9.521233,0 17.267387,-7.746147 17.267387,-17.267381 0,-9.521235 -7.746154,-17.267381 -17.267387,-17.267381 z"
       id="path28"
       style="fill:none;stroke:url(#linearGradient3801);stroke-width:2;stroke-miterlimit:4;stroke-dasharray:none" />
    <path
       d="m 47.999997,31.372152 c -9.168751,0 -16.627852,7.459099 -16.627852,16.627848 0,9.168749 7.459101,16.627848 16.627852,16.627848 9.168751,-2e-6 16.627852,-7.459099 16.627852,-16.627848 0,-9.168749 -7.459101,-16.627848 -16.627852,-16.627848 z m 0,7.674391 c 4.942307,0 8.953461,4.011149 8.953461,8.953457 0,4.942308 -4.011154,8.953457 -8.953461,8.953457 -4.942307,0 -8.953461,-4.011149 -8.953461,-8.953457 0,-4.942308 4.011154,-8.953457 8.953461,-8.953457 z"
       id="path3315"
       style="opacity:0.05;fill:#000000;fill-opacity:1;stroke:none" />
  </g>
  <g
     transform="translate(-17.924528,-18.968268)"
     id="layer3"
     style="display:inline">
    <path
       d="m 34.78125,18.96875 c -2.070023,0.134235 -4.674091,0.171999 -6.75,1.6875 a 1.0122248,1.0122248 0 0 0 -0.09375,0.0625 c -0.802198,0.758366 -1.024972,1.868655 -0.8125,2.78125 0.195647,0.840331 0.732947,1.55348 1.4375,2.0625 l -0.03125,0.03125 4.59375,4.5625 -3.96875,3.96875 c -1.827484,-1.828353 -3.642453,-3.740628 -5.5625,-5.53125 A 1.0122248,1.0122248 0 0 0 23.46875,28.5 C 21.632383,27.283784 19.293735,28.57677 18.875,30.59375 L 18.8125,30.5625 c -2.91023,8.201452 1.58686,17.980926 9.78125,21 0.0089,0.0033 0.02231,-0.0033 0.03125,0 3.197827,1.239522 6.744217,1.342286 10.0625,0.5625 L 40.5625,54 c -0.232099,1.151094 -0.09779,2.295502 0.375,3.21875 0.565372,1.104028 1.453808,1.95467 2.28125,2.6875 L 43.1875,59.9375 c 0.01563,0.01565 0.04687,0.0156 0.0625,0.03125 5.495045,5.503034 10.936511,11.051553 16.53125,16.46875 a 1.0122248,1.0122248 0 0 0 0.0625,0.03125 c 5.025102,4.357431 13.411785,2.921639 16.625,-2.90625 0.0042,-0.0077 -0.0042,-0.02357 0,-0.03125 2.858036,-4.643898 1.560051,-10.891025 -2.5625,-14.3125 L 73.9375,59.1875 C 73.91153,59.16135 73.86972,59.15115 73.84375,59.125 68.325104,53.566963 62.807163,48.032205 57.21875,42.53125 L 57.1875,42.5625 c -0.506924,-0.591982 -1.147134,-0.964023 -1.75,-1.09375 -0.635768,-0.136807 -1.194648,-0.115161 -1.65625,-0.09375 -0.461602,0.02141 -0.806061,0.02432 -1,-0.03125 -0.193939,-0.05557 -0.294682,-0.08929 -0.46875,-0.40625 a 1.0122248,1.0122248 0 0 0 -0.40625,-0.375 C 51.547491,40.367884 51.449868,40.191988 51.375,40.03125 51.30013,39.870512 51.260699,39.643391 51.28125,39.3125 c 0.04018,-0.647015 0.339348,-1.585389 0.375,-2.6875 8.14e-4,-0.02515 -5.24e-4,-0.03719 0,-0.0625 0.615215,-8.184403 -5.530047,-15.919042 -13.5625,-17.3125 -1.075608,-0.208205 -2.163133,-0.285291 -3.25,-0.28125 a 1.0122248,1.0122248 0 0 0 -0.0625,0 z"
       id="path3973"
       style="opacity:0.05;fill:#000000;fill-opacity:1;stroke:none" />
    <path
       d="m 34.84375,19.96875 c -2.089174,0.135477 -4.48031,0.230865 -6.21875,1.5 -1.059014,1.00115 -0.507676,2.684056 0.61295,3.391122 1.77485,1.765459 3.5497,3.530919 5.32455,5.296378 -1.802083,1.802083 -3.604167,3.604167 -5.40625,5.40625 -2.093025,-2.057748 -4.116318,-4.228893 -6.25,-6.21875 -1.237569,-0.819635 -2.933927,0.154651 -3.123531,1.56402 -2.715926,7.653876 1.54437,16.921657 9.193036,19.723139 3.204624,1.249221 6.81039,1.381257 10.117995,0.462841 0.84375,0.84375 1.6875,1.6875 2.53125,2.53125 -0.879732,2.260738 0.710433,4.189556 2.295084,5.583438 5.513787,5.521415 10.9674,11.095283 16.566868,16.517059 4.513183,3.913529 12.23381,2.535268 15.106355,-2.707243 2.605629,-4.205915 1.417077,-10.026702 -2.377593,-13.10841 C 67.673663,54.327719 62.099848,48.759405 56.488288,43.235665 54.978787,41.325978 52.566053,43.495824 51.433425,41.433425 49.406058,40.33364 50.631634,38.375829 50.669732,36.534608 51.276728,28.889002 45.410035,21.559351 37.900048,20.25653 36.893836,20.061758 35.868651,19.964939 34.84375,19.96875 z M 67,67.03125 c 2.823801,0.688773 -1.36595,3.476049 -0.900008,0.569507 C 66.225294,67.2315 66.624423,67.015433 67,67.03125 z"
       id="path3959"
       style="opacity:0.07999998;fill:#000000;fill-opacity:1;stroke:none" />
    <path
       d="m 34.84375,21.09375 c -1.733306,0.0064 -3.456486,0.332808 -5.09375,0.9375 A 0.89294642,0.89294642 0 0 0 29.4375,23.5 L 36.125,30.15625 29.15625,37.125 22.5,30.4375 A 0.89294642,0.89294642 0 0 0 21.03125,30.75 c -1.94047,5.2539 -0.81098,11.407767 3.40625,15.625 4.069275,4.069274 9.903813,5.199471 15.03125,3.53125 L 42.8125,53.25 c -0.667141,1.219708 -0.528484,2.752763 0.5,3.78125 l 12.25,12.28125 0.8125,0.84375 a 0.89294642,0.89294642 0 0 0 0.03125,0 L 60.5,74.25 c 3.519573,3.519571 9.230427,3.519571 12.75,0 3.519574,-3.51957 3.519574,-9.230429 0,-12.75 l -4.09375,-4.09375 a 0.89294642,0.89294642 0 0 0 0,-0.03125 L 68.3125,56.5625 56.03125,44.3125 C 55.402835,43.684091 54.577035,43.34375 53.75,43.34375 c -0.53057,0 -1.029134,0.207781 -1.5,0.46875 L 48.90625,40.46875 C 50.574473,35.341313 49.444278,29.506775 45.375,25.4375 42.474613,22.53711 38.647577,21.079804 34.84375,21.09375 z M 67,65.90625 c 1.174313,0 2.09375,0.919433 2.09375,2.09375 0,1.174317 -0.919437,2.09375 -2.09375,2.09375 -1.174313,0 -2.09375,-0.919433 -2.09375,-2.09375 0,-1.174317 0.919437,-2.09375 2.09375,-2.09375 z"
       id="path3955"
       style="opacity:0.2;fill:#000000;fill-opacity:1;stroke:none" />
    <path
       d="m 34.84375,22 c -1.625968,0.006 -3.238359,0.305163 -4.78125,0.875 L 37.375,30.15625 29.15625,38.375 21.875,31.0625 c -1.823523,4.937261 -0.778236,10.721761 3.1875,14.6875 3.97358,3.973579 9.743764,5.026055 14.6875,3.1875 l 4.1875,4.1875 c -0.908347,0.90835 -0.908347,2.3729 0,3.28125 l 12.28125,12.28125 0.8125,0.84375 4.09375,4.09375 c 3.17923,3.179228 8.32077,3.179228 11.5,0 3.17923,-3.179226 3.17923,-8.320773 0,-11.5 L 68.53125,58.03125 67.6875,57.21875 55.40625,44.9375 C 54.95207,44.483324 54.34272,44.25 53.75,44.25 c -0.59272,0 -1.17083,0.233324 -1.625,0.6875 L 47.9375,40.75 C 49.776057,35.806264 48.723583,30.03608 44.75,26.0625 42.023556,23.336054 38.420881,21.986885 34.84375,22 z M 67,65 c 1.65685,0 3,1.343146 3,3 0,1.656854 -1.34315,3 -3,3 -1.65685,0 -3,-1.343146 -3,-3 0,-1.656854 1.34315,-3 3,-3 z"
       id="path3940"
       style="opacity:0.3;fill:#000000;fill-opacity:1;stroke:none" />
    <rect
       width="11.593881"
       height="14.699384"
       x="-5.7969375"
       y="57.850506"
       transform="matrix(0.70710678,-0.70710678,0.70710678,0.70710678,0,0)"
       id="rect3705"
       style="fill:url(#linearGradient3887);fill-opacity:1;stroke:none" />
    <rect
       width="5.2159276"
       height="6.6130509"
       x="-2.6079667"
       y="-68.506721"
       transform="matrix(-0.70710678,0.70710678,-0.70710678,-0.70710678,0,0)"
       id="rect3914"
       style="fill:url(#linearGradient3916);fill-opacity:1;stroke:none" />
    <path
       d="m 47.138973,38.966991 -8.270624,8.239057 5.010153,4.947018 8.333758,-8.081221 -5.073287,-5.104854 z"
       id="path3922"
       style="opacity:0.4;fill:url(#linearGradient3938);fill-opacity:1;stroke:none" />
    <path
       d="M 45,36.8125 36.8125,45 47.1875,55.40625 55.40625,47.1875 45,36.8125 z M 45,38.25 53.96875,47.1875 47.1875,53.96875 38.25,45 45,38.25 z"
       id="rect3907"
       style="opacity:0.2;fill:#000000;fill-opacity:1;stroke:none" />
    <path
       d="m 21.864146,30.062258 c -1.823523,4.937261 -0.763346,10.714004 3.20239,14.679743 5.433231,5.43323 14.242237,5.43323 19.675468,0 5.433231,-5.43323 5.433231,-14.242236 0,-19.675467 -3.965736,-3.965739 -9.742486,-5.025868 -14.679738,-3.202388 l 7.301439,7.301444 -8.198109,8.198111 -7.30145,-7.301443 z"
       id="path3707"
       style="fill:url(#linearGradient3879);fill-opacity:1;stroke:none" />
    <path
       d="m 53.75,43.25 c -0.592724,0 -1.170827,0.233324 -1.625,0.6875 l -8.1875,8.1875 c -0.908347,0.90835 -0.908347,2.3729 0,3.28125 l 12.28125,12.28125 0.8125,0.84375 4.09375,4.09375 c 3.179227,3.179228 8.320773,3.179228 11.5,0 3.179226,-3.179226 3.179226,-8.320773 0,-11.5 L 68.53125,57.03125 67.6875,56.21875 55.40625,43.9375 C 54.952071,43.483324 54.342724,43.25 53.75,43.25 z M 67,64 c 1.656854,0 3,1.343146 3,3 0,1.656854 -1.343146,3 -3,3 -1.656854,0 -3,-1.343146 -3,-3 0,-1.656854 1.343146,-3 3,-3 z"
       id="path3709"
       style="fill:url(#linearGradient3800);fill-opacity:1;stroke:none" />
    <path
       d="m 73.125,62.625 c 0.238886,0.733299 0.375,1.530733 0.375,2.34375 0,4.149321 -3.350679,7.5 -7.5,7.5 -2.538386,0 -4.796157,-1.26003 -6.15625,-3.1875 0.980297,3.009171 3.819946,5.1875 7.15625,5.1875 4.149321,0 7.5,-3.350679 7.5,-7.5 0,-1.612849 -0.509972,-3.119708 -1.375,-4.34375 z"
       id="path3846"
       style="opacity:0.8;fill:#f98d01;fill-opacity:1;stroke:none" />
    <path
       d="m 53.75,43.25 c -0.592724,0 -1.170827,0.233324 -1.625,0.6875 l -8.1875,8.1875 c -0.908347,0.90835 -0.908347,2.3729 0,3.28125 l 12.28125,12.28125 0.8125,0.84375 4.09375,4.09375 c 3.179227,3.179228 8.320773,3.179228 11.5,0 3.179226,-3.179226 3.179226,-8.320773 0,-11.5 L 68.53125,57.03125 67.6875,56.21875 55.40625,43.9375 C 54.952071,43.483324 54.342724,43.25 53.75,43.25 z m 0,1.34375 c 0.239118,0 0.52751,0.09001 0.71875,0.28125 L 66.75,57.15625 a 1.3475579,1.3475579 0 0 0 0,0.03125 L 67.59375,58 71.6875,62.0625 c 2.665608,2.665609 2.665608,6.959392 0,9.625 -2.665609,2.66561 -6.959391,2.66561 -9.625,0 L 58,67.59375 57.1875,66.75 a 1.3475579,1.3475579 0 0 0 -0.03125,0 L 44.875,54.46875 c -0.39629,-0.396292 -0.39629,-1.009958 0,-1.40625 l 8.1875,-8.1875 c 0.213078,-0.21308 0.448382,-0.28125 0.6875,-0.28125 z"
       id="path3717"
       style="fill:#d88100;fill-opacity:1;stroke:none" />
    <path
       d="m 67,63 c -2.209139,0 -4,1.790861 -4,4 0,2.209139 1.790861,4 4,4 2.209139,0 4,-1.790861 4,-4 0,-2.209139 -1.790861,-4 -4,-4 z m 0,1 c 1.656854,0 3,1.343146 3,3 0,1.656854 -1.343146,3 -3,3 -1.656854,0 -3,-1.343146 -3,-3 0,-1.656854 1.343146,-3 3,-3 z"
       id="path3803"
       style="fill:#d88100;fill-opacity:1;stroke:none" />
    <path
       d="m 53.75,44.5625 c -0.247452,0 -0.46874,0.09374 -0.6875,0.3125 l -8.1875,8.1875 c -0.408358,0.40836 -0.408358,0.99789 0,1.40625 L 57.15625,66.75 a 1.3157991,1.3157991 0 0 1 0,0.03125 l 0.8125,0.84375 4.09375,4.0625 c 2.677714,2.677715 6.947286,2.677715 9.625,0 2.677713,-2.677713 2.677713,-6.947286 0,-9.625 l -4.0625,-4.09375 -0.84375,-0.8125 a 1.3157991,1.3157991 0 0 1 -0.03125,0 L 54.46875,44.875 C 54.271313,44.677564 53.997452,44.5625 53.75,44.5625 z m 0,1.625 12,11.96875 a 2.7497838,2.7497838 0 0 0 0.03125,0.03125 l 0.8125,0.78125 L 66.625,59 l 4.0625,4.0625 c 2.131154,2.131155 2.131154,5.493846 0,7.625 -2.131155,2.131156 -5.493845,2.131156 -7.625,0 L 59,66.625 58.96875,66.59375 58.1875,65.78125 A 2.7497838,2.7497838 0 0 0 58.15625,65.75 L 46.1875,53.75 53.75,46.1875 z"
       id="path3736"
       style="opacity:0.6;fill:url(#linearGradient3747);fill-opacity:1;stroke:none" />
    <path
       d="M 59.093925,53.889267 A 10.985409,10.985409 0 0 1 48.108517,64.874676 l 0,-10.985409 z"
       transform="matrix(0.97938355,0.97938355,-0.70710678,0.70710678,44.710585,-39.029618)"
       id="path3759"
       style="opacity:0.6;fill:url(#radialGradient3791);fill-opacity:1;stroke:none" />
    <path
       d="m 46.833179,54.397699 6.875,-6.785714 11.752992,11.511285"
       id="path3749"
       style="fill:none;stroke:url(#radialGradient3811);stroke-width:2;stroke-linecap:butt;stroke-linejoin:miter;stroke-miterlimit:4;stroke-opacity:1;stroke-dasharray:none" />
    <path
       d="M 71.76314,64.25 C 70.244357,61.619391 66.880609,60.718077 64.25,62.23686 c -2.630609,1.518783 -3.531923,4.882531 -2.01314,7.51314 1.518783,2.630609 4.882531,3.531923 7.51314,2.01314 2.630609,-1.518783 3.531923,-4.882531 2.01314,-7.51314 z m -0.866026,0.5 C 72.139755,66.902316 71.402316,69.654474 69.25,70.897114 67.097684,72.139755 64.345526,71.402316 63.102886,69.25 61.860245,67.097684 62.597684,64.345526 64.75,63.102886 66.902316,61.860245 69.654474,62.597684 70.897114,64.75 z"
       id="path3852"
       style="fill:url(#linearGradient3871);fill-opacity:1;stroke:none" />
    <path
       d="m 30.8125,21.625 c -0.250729,0.07675 -0.503137,0.158826 -0.75,0.25 l 7.264594,7.264912 0.5,-0.5 L 30.8125,21.625 z m 16.0625,6.21875 c 1.939225,4.985642 0.900353,10.880898 -3.125,14.90625 -5.433231,5.43323 -14.254269,5.43323 -19.6875,0 -0.804558,-0.804559 -1.46569,-1.693494 -2.03125,-2.625 0.677463,1.676388 1.673181,3.26693 3.03125,4.625 5.433231,5.43323 14.254269,5.43323 19.6875,0 4.584289,-4.584288 5.276698,-11.570942 2.125,-16.90625 z"
       id="path3889"
       style="opacity:0.4;fill:#4d4d4d;fill-opacity:1;stroke:none" />
    <path
       d="M 37.8125,28.674107 29.15625,37.375 21.875,30.0625 c -0.626892,1.697334 -0.899367,3.493176 -0.84375,5.28125 0.05765,-1.456986 0.33278,-2.897778 0.84375,-4.28125 l 7.28125,7.3125 9.15625,-9.200893 -0.5,-0.5 z"
       id="path3897"
       style="opacity:0.5;fill:#ffffff;fill-opacity:1;stroke:none" />
  </g>
</svg>
