<?xml version="1.0" encoding="UTF-8" standalone="no"?>
<!-- Created with Inkscape (http://www.inkscape.org/) -->

<svg
   xmlns:dc="http://purl.org/dc/elements/1.1/"
   xmlns:cc="http://creativecommons.org/ns#"
   xmlns:rdf="http://www.w3.org/1999/02/22-rdf-syntax-ns#"
   xmlns:svg="http://www.w3.org/2000/svg"
   xmlns="http://www.w3.org/2000/svg"
   xmlns:xlink="http://www.w3.org/1999/xlink"
   xmlns:sodipodi="http://sodipodi.sourceforge.net/DTD/sodipodi-0.dtd"
   xmlns:inkscape="http://www.inkscape.org/namespaces/inkscape"
   version="1.0"
   width="50"
   height="49.999996"
   id="svg2408"
   style="display:inline"
   inkscape:version="0.48.2 r9819"
   sodipodi:docname="update.svg">
  <sodipodi:namedview
     pagecolor="#ffffff"
     bordercolor="#666666"
     borderopacity="1"
     objecttolerance="10"
     gridtolerance="10"
     guidetolerance="10"
     inkscape:pageopacity="0"
     inkscape:pageshadow="2"
     inkscape:window-width="1440"
     inkscape:window-height="876"
     id="namedview70"
     showgrid="false"
     fit-margin-top="0"
     fit-margin-left="0"
     fit-margin-right="0"
     fit-margin-bottom="0"
     inkscape:zoom="209.41454"
     inkscape:cx="50.798457"
     inkscape:cy="24.759756"
     inkscape:window-x="0"
     inkscape:window-y="24"
     inkscape:window-maximized="1"
     inkscape:current-layer="layer3"
     units="px"
     borderlayer="false" />
  <defs
     id="defs2410">
    <linearGradient
       id="linearGradient3746">
      <stop
         id="stop3748"
         style="stop-color:#000000;stop-opacity:1"
         offset="0" />
      <stop
         id="stop3754"
         style="stop-color:#000000;stop-opacity:0"
         offset="1" />
    </linearGradient>
    <linearGradient
       x1="45.447727"
       y1="92.539597"
       x2="45.447727"
       y2="7.0165396"
       id="ButtonShadow"
       gradientUnits="userSpaceOnUse"
       gradientTransform="scale(1.0058652,0.994169)">
      <stop
         id="stop3750"
         style="stop-color:#000000;stop-opacity:1"
         offset="0" />
      <stop
         id="stop3752"
         style="stop-color:#000000;stop-opacity:0.58823532"
         offset="1" />
    </linearGradient>
    <linearGradient
       id="linearGradient3700">
      <stop
         id="stop3702"
         style="stop-color:#ebebeb;stop-opacity:1"
         offset="0" />
      <stop
         id="stop3704"
         style="stop-color:#fafafa;stop-opacity:1"
         offset="1" />
    </linearGradient>
    <linearGradient
       x1="48"
       y1="90"
       x2="48"
       y2="5.9877172"
       id="linearGradient3706"
       xlink:href="#linearGradient3700"
       gradientUnits="userSpaceOnUse" />
    <filter
       color-interpolation-filters="sRGB"
       id="filter3174">
      <feGaussianBlur
         stdDeviation="1.71"
         id="feGaussianBlur3176" />
    </filter>
    <linearGradient
       x1="45.447727"
       y1="92.539597"
       x2="45.447727"
       y2="7.0165396"
       id="ButtonShadow-0"
       gradientUnits="userSpaceOnUse"
       gradientTransform="matrix(1.0058652,0,0,0.994169,100,0)">
      <stop
         id="stop3750-8"
         style="stop-color:#000000;stop-opacity:1"
         offset="0" />
      <stop
         id="stop3752-5"
         style="stop-color:#000000;stop-opacity:0.58823532"
         offset="1" />
    </linearGradient>
    <linearGradient
       x1="32.251034"
       y1="6.1317081"
       x2="32.251034"
       y2="90.238609"
       id="linearGradient3780"
       xlink:href="#ButtonShadow-0"
       gradientUnits="userSpaceOnUse"
       gradientTransform="matrix(1.0238095,0,0,1.0119048,-1.1428571,-98.071429)" />
    <linearGradient
       x1="32.251034"
       y1="6.1317081"
       x2="32.251034"
       y2="90.238609"
       id="linearGradient3772"
       xlink:href="#ButtonShadow-0"
       gradientUnits="userSpaceOnUse"
       gradientTransform="matrix(1.0238095,0,0,1.0119048,-1.1428571,-98.071429)" />
    <linearGradient
       x1="32.251034"
       y1="6.1317081"
       x2="32.251034"
       y2="90.238609"
       id="linearGradient3725"
       xlink:href="#ButtonShadow-0"
       gradientUnits="userSpaceOnUse"
       gradientTransform="matrix(1.0238095,0,0,1.0119048,-1.1428571,-98.071429)" />
    <linearGradient
       x1="32.251034"
       y1="6.1317081"
       x2="32.251034"
       y2="90.238609"
       id="linearGradient3721"
       xlink:href="#ButtonShadow-0"
       gradientUnits="userSpaceOnUse"
       gradientTransform="translate(0,-97)" />
    <linearGradient
       x1="32.251034"
       y1="6.1317081"
       x2="32.251034"
       y2="90.238609"
       id="linearGradient3760"
       xlink:href="#ButtonShadow-0"
       gradientUnits="userSpaceOnUse"
       gradientTransform="matrix(1.0238095,0,0,1.0119048,-1.1428571,-98.071429)" />
    <linearGradient
       id="linearGradient3737-1">
      <stop
         id="stop3739-9"
         style="stop-color:#ffffff;stop-opacity:1"
         offset="0" />
      <stop
         id="stop3741-3"
         style="stop-color:#ffffff;stop-opacity:0"
         offset="1" />
    </linearGradient>
    <radialGradient
       cx="48"
       cy="90.171875"
       r="42"
       fx="48"
       fy="90.171875"
       id="radialGradient2886"
       xlink:href="#linearGradient3737-0"
       gradientUnits="userSpaceOnUse"
       gradientTransform="matrix(1.1573129,0,0,0.99590774,-7.551021,0.1971319)" />
    <linearGradient
       id="linearGradient3737-0">
      <stop
         id="stop3739-6"
         style="stop-color:#ffffff;stop-opacity:1"
         offset="0" />
      <stop
         id="stop3741-0"
         style="stop-color:#ffffff;stop-opacity:0"
         offset="1" />
    </linearGradient>
    <linearGradient
       x1="36.357143"
       y1="6"
       x2="36.357143"
       y2="63.893143"
       id="linearGradient3923"
       xlink:href="#linearGradient3737-1"
       gradientUnits="userSpaceOnUse" />
    <linearGradient
       id="linearGradient3778">
      <stop
         id="stop3780"
         style="stop-color:#5e8a20;stop-opacity:1"
         offset="0" />
      <stop
         id="stop3782"
         style="stop-color:#a2d625;stop-opacity:1"
         offset="1" />
    </linearGradient>
    <linearGradient
       id="linearGradient3737-2">
      <stop
         id="stop3739-5"
         style="stop-color:#ffffff;stop-opacity:1"
         offset="0" />
      <stop
         id="stop3741-1"
         style="stop-color:#ffffff;stop-opacity:0"
         offset="1" />
    </linearGradient>
    <linearGradient
       x1="51.42857"
       y1="72.785713"
       x2="90.714287"
       y2="72.785713"
       id="linearGradient3188-6"
       xlink:href="#linearGradient3778"
       gradientUnits="userSpaceOnUse"
       gradientTransform="matrix(0,-1.2727272,1.272406,0,-44.617778,138.45454)" />
    <linearGradient
       x1="65.262688"
       y1="86.849419"
       x2="65.599998"
       y2="42.399998"
       id="linearGradient3849"
       xlink:href="#linearGradient3746"
       gradientUnits="userSpaceOnUse"
       gradientTransform="matrix(0.83333333,0,0,0.83333333,-8.6666651,-5.3333307)" />
    <linearGradient
       x1="65.262688"
       y1="64.205269"
       x2="65.262688"
       y2="43.780487"
       id="linearGradient3858"
       xlink:href="#linearGradient3737-2"
       gradientUnits="userSpaceOnUse"
       gradientTransform="matrix(0.83333333,0,0,0.83333333,-8.6666651,-6.3333307)" />
    <linearGradient
       x1="65.262688"
       y1="86.849419"
       x2="65.262688"
       y2="43.591393"
       id="linearGradient3861"
       xlink:href="#linearGradient3746"
       gradientUnits="userSpaceOnUse"
       gradientTransform="matrix(0.83333333,0,0,0.83333333,-8.6666651,-5.3333307)" />
    <linearGradient
       x1="65.262688"
       y1="86.849419"
       x2="65.599998"
       y2="42.399998"
       id="linearGradient3864"
       xlink:href="#linearGradient3746"
       gradientUnits="userSpaceOnUse"
       gradientTransform="matrix(0.83333333,0,0,0.83333333,-8.6666651,-5.3333307)" />
    <clipPath
       id="clipPath3894">
      <path
         d="m 104.07143,44.498283 c 0,-2.611875 -2.10257,-4.714575 -4.714286,-4.714575 l -56.571432,0 c -2.611714,0 -4.714286,2.1027 -4.714286,4.714575 l 0,56.574907 c 0,2.61187 2.102572,4.71457 4.714286,4.71457 l 56.571432,0 c 2.611716,0 4.714286,-2.1027 4.714286,-4.71457 l 0,-56.574907 z M 90.714287,72.785735 c 0,10.84845 -8.794408,19.644064 -19.642859,19.644064 -10.84845,0 -19.642858,-8.795614 -19.642858,-19.644064 0,-10.84845 8.794408,-19.644064 19.642858,-19.644064 10.848451,0 19.642859,8.795614 19.642859,19.644064 z"
         id="path3896"
         style="fill:#ff00ff;fill-opacity:1;fill-rule:nonzero;stroke:none"
         inkscape:connector-curvature="0" />
    </clipPath>
    <filter
       x="-0.14400885"
       y="-0.14399116"
       width="1.2880177"
       height="1.2879823"
       color-interpolation-filters="sRGB"
       id="filter3898">
      <feGaussianBlur
         stdDeviation="2.3571428"
         id="feGaussianBlur3900" />
    </filter>
    <linearGradient
       id="linearGradient3737-9">
      <stop
         id="stop3739-2"
         style="stop-color:#ffffff;stop-opacity:1"
         offset="0" />
      <stop
         id="stop3741-1-8"
         style="stop-color:#ffffff;stop-opacity:0"
         offset="1" />
    </linearGradient>
    <clipPath
       id="clipPath3613">
      <rect
         width="84"
         height="84"
         rx="6"
         ry="6"
         x="6"
         y="6"
         id="rect3615"
         style="fill:#ffffff;fill-opacity:1;fill-rule:nonzero;stroke:none" />
    </clipPath>
    <filter
       x="-0.192"
       y="-0.192"
       width="1.3839999"
       height="1.3839999"
       color-interpolation-filters="sRGB"
       id="filter3794">
      <feGaussianBlur
         stdDeviation="5.28"
         id="feGaussianBlur3796" />
    </filter>
    <linearGradient
       x1="48"
       y1="20.220806"
       x2="48"
       y2="138.66119"
       id="linearGradient2965"
       xlink:href="#linearGradient3737-9"
       gradientUnits="userSpaceOnUse" />
  </defs>
  <metadata
     id="metadata2413">
    <rdf:RDF>
      <cc:Work
         rdf:about="">
        <dc:format>image/svg+xml</dc:format>
        <dc:type
           rdf:resource="http://purl.org/dc/dcmitype/StillImage" />
        <dc:title />
      </cc:Work>
    </rdf:RDF>
  </metadata>
  <g
     transform="translate(-22.995871,-23.000004)"
     id="layer2"
     style="display:none">
    <rect
       width="86"
       height="85"
       rx="6"
       ry="6"
       x="5"
       y="7"
       id="rect3745"
       style="opacity:0.9;fill:url(#ButtonShadow);fill-opacity:1;fill-rule:nonzero;stroke:none;filter:url(#filter3174)" />
  </g>
  <g
     transform="translate(-22.995871,-23.000004)"
     id="layer3">
    <path
       d="m 47.995201,23.000005 a 24.99369,24.999998 0 1 1 0,49.999995 24.99369,24.999998 0 1 1 0,-49.999995 z"
       id="path3836"
       style="fill:url(#linearGradient3188-6);fill-opacity:1;stroke:none;display:inline"
       inkscape:connector-curvature="0" />
    <path
       d="m 47.9952,23.000004 c -13.803634,0 -24.993689,11.19288 -24.993689,24.999997 C 23.001511,61.80712 34.191566,73 47.9952,73 61.798833,73 72.988889,61.80712 72.988889,48.000001 72.988889,34.192884 61.798833,23.000004 47.9952,23.000004 z m 0,3.124999 c 12.078177,0 21.869477,9.793773 21.869477,21.874998 0,12.081227 -9.7913,21.874999 -21.869477,21.874999 -12.078177,0 -21.869478,-9.793772 -21.869478,-21.874999 0,-12.081225 9.791301,-21.874998 21.869478,-21.874998 z"
       id="path3802"
       style="opacity:0.05;fill:#000000;fill-opacity:1;stroke:none;display:inline"
       inkscape:connector-curvature="0" />
    <path
       d="m 47.9952,23.000004 c -13.803634,0 -24.993689,11.19288 -24.993689,24.999997 C 23.001511,61.80712 34.191566,73 47.9952,73 61.798833,73 72.988889,61.80712 72.988889,48.000001 72.988889,34.192884 61.798833,23.000004 47.9952,23.000004 z m 0,2.083332 c 12.653329,0 22.910882,10.260142 22.910882,22.916665 0,12.656524 -10.257553,22.916666 -22.910882,22.916666 -12.653329,0 -22.910882,-10.260142 -22.910882,-22.916666 0,-12.656523 10.257553,-22.916665 22.910882,-22.916665 z"
       id="path3798"
       style="opacity:0.1;fill:#000000;fill-opacity:1;stroke:none;display:inline"
       inkscape:connector-curvature="0" />
    <path
       d="m 47.9952,23.000004 c -13.803634,0 -24.993689,11.19288 -24.993689,24.999997 C 23.001511,61.80712 34.191566,73 47.9952,73 61.798833,73 72.988889,61.80712 72.988889,48.000001 72.988889,34.192884 61.798833,23.000004 47.9952,23.000004 z m 0,1.041667 c 13.22848,0 23.952285,10.726511 23.952285,23.95833 0,13.231821 -10.723805,23.958332 -23.952285,23.958332 -13.228481,0 -23.952285,-10.726511 -23.952285,-23.958332 0,-13.231819 10.723804,-23.95833 23.952285,-23.95833 z"
       id="path3794"
       style="opacity:0.07999998;fill:#000000;fill-opacity:1;stroke:none;display:inline"
       inkscape:connector-curvature="0" />
    <g
       id="g3866"
       style="display:inline"
       transform="matrix(0.999809,0,0,1,0.00439326,0)">
      <path
         d="M 39.90625,29.9375 A 1.0480634,1.0480634 0 0 0 38.9375,31 l 0,16.9375 -5.59375,0 a 1.0480634,1.0480634 0 0 0 -0.8125,1.71875 l 14.65625,18 a 1.0480634,1.0480634 0 0 0 1.625,0 l 14.65625,-18 a 1.0480634,1.0480634 0 0 0 -0.8125,-1.71875 l -5.59375,0 0,-16.9375 A 1.0480634,1.0480634 0 0 0 56,29.9375 l -16,0 a 1.0480634,1.0480634 0 0 0 -0.09375,0 z M 40,30 56,30 56,48 62.65625,48 48,66 33.34375,48 40,48 40,30 z"
         id="path3763"
         style="opacity:0.1;fill:url(#linearGradient3849);fill-opacity:1;fill-rule:nonzero;stroke:none;display:inline"
         inkscape:connector-curvature="0" />
      <path
         d="m 55.90625,29 c -0.141597,-0.0024 -0.296606,0.0059 -0.4375,0.03125 l -15.8125,0 c -1.219937,0.199362 -1.796456,1.466477 -1.625,2.59375 l 0,15.40625 C 36.294071,47.07162 34.536901,46.94959 32.8125,47.09375 31.340365,47.434111 30.885011,49.516423 32,50.5 c 4.876521,5.965328 9.725208,11.971747 14.625,17.90625 0.920978,0.93346 2.507698,0.60473 3.15625,-0.46875 L 64.1875,50.25 c 1.094987,-1.210834 0.01899,-3.42092 -1.625,-3.21875 l -4.59375,0 0,-16.3125 C 57.848228,29.687122 56.89743,29.016564 55.90625,29 z M 40,30 56,30 56,48 62.65625,48 48,66 33.34375,48 40,48 40,30 z"
         id="path3772"
         style="opacity:0.05;fill:url(#linearGradient3864);fill-opacity:1;fill-rule:nonzero;stroke:none;display:inline"
         inkscape:connector-curvature="0" />
      <path
         d="M 33.34375,49 48,67 62.65625,49 61.84375,49 48,66 34.15625,49 l -0.8125,0 z"
         id="path3741"
         style="opacity:0.3;fill:url(#linearGradient3861);fill-opacity:1;fill-rule:nonzero;stroke:none;display:inline"
         inkscape:connector-curvature="0" />
      <path
         d="m 40.000003,30.000004 0,17.999996 -6.666667,0 14.666667,18 14.666666,-18 -6.666667,0 0,-17.999996 -15.999999,0 z"
         id="path3867"
         style="fill:url(#linearGradient3858);fill-opacity:1;fill-rule:nonzero;stroke:none;display:inline"
         inkscape:connector-curvature="0" />
    </g>
    <path
       d="m 47.9952,23.000004 c -13.803634,0 -24.993689,11.19288 -24.993689,24.999997 0,0.172482 -0.0034,0.349185 0,0.520834 0.274763,-13.568816 11.362493,-24.479164 24.993689,-24.479164 13.631195,0 24.718926,10.910348 24.993689,24.479164 0.0035,-0.171649 0,-0.348352 0,-0.520834 0,-13.807117 -11.190056,-24.999997 -24.993689,-24.999997 z"
       id="path3811"
       style="opacity:0.2;fill:#000000;fill-opacity:1;stroke:none;display:inline"
       inkscape:connector-curvature="0" />
  </g>
</svg>
