<?xml version="1.0" encoding="UTF-8" standalone="no"?>
<!-- Created with Inkscape (http://www.inkscape.org/) -->

<svg
   xmlns:dc="http://purl.org/dc/elements/1.1/"
   xmlns:cc="http://creativecommons.org/ns#"
   xmlns:rdf="http://www.w3.org/1999/02/22-rdf-syntax-ns#"
   xmlns:svg="http://www.w3.org/2000/svg"
   xmlns="http://www.w3.org/2000/svg"
   xmlns:xlink="http://www.w3.org/1999/xlink"
   xmlns:sodipodi="http://sodipodi.sourceforge.net/DTD/sodipodi-0.dtd"
   xmlns:inkscape="http://www.inkscape.org/namespaces/inkscape"
   width="1848.9845"
   height="1558.9698"
   id="svg2"
   version="1.1"
   inkscape:version="0.48.3.1 r9886"
   sodipodi:docname="fondoazul.svg">
  <defs
     id="defs4">
    <linearGradient
       id="linearGradient5470">
      <stop
         style="stop-color:#3697d4;stop-opacity:1;"
         offset="0"
         id="stop5472" />
      <stop
         style="stop-color:#1b6695;stop-opacity:1;"
         offset="1"
         id="stop5474" />
    </linearGradient>
    <radialGradient
       inkscape:collect="always"
       xlink:href="#linearGradient5470"
       id="radialGradient5484"
       cx="-6763.5029"
       cy="4614.1733"
       fx="-6763.5029"
       fy="4614.1733"
       r="117.64286"
       gradientTransform="matrix(3.3269164,18.200688,-27.208282,8.8117626,149024.28,82747.51)"
       gradientUnits="userSpaceOnUse" />
  </defs>
  <sodipodi:namedview
     id="base"
     pagecolor="#ffffff"
     bordercolor="#666666"
     borderopacity="1.0"
     inkscape:pageopacity="0.0"
     inkscape:pageshadow="2"
     inkscape:zoom="0.7"
     inkscape:cx="1390.4751"
     inkscape:cy="279.70876"
     inkscape:document-units="px"
     inkscape:current-layer="layer1"
     showgrid="false"
     fit-margin-top="0"
     fit-margin-left="0"
     fit-margin-right="0"
     fit-margin-bottom="0"
     inkscape:window-width="1366"
     inkscape:window-height="744"
     inkscape:window-x="0"
     inkscape:window-y="24"
     inkscape:window-maximized="1" />
  <metadata
     id="metadata7">
    <rdf:RDF>
      <cc:Work
         rdf:about="">
        <dc:format>image/svg+xml</dc:format>
        <dc:type
           rdf:resource="http://purl.org/dc/dcmitype/StillImage" />
        <dc:title></dc:title>
      </cc:Work>
    </rdf:RDF>
  </metadata>
  <g
     inkscape:label="Capa 1"
     inkscape:groupmode="layer"
     id="layer1"
     transform="translate(353.24282,197.22808)">
    <path
       style="fill:#0a4b74;fill-opacity:1;stroke:none;opacity:1"
       d="m 973.47645,1353.3923 c 78.62775,-106.0713 11.63667,-219.7715 71.51995,-338.7383 16.4163,-31.45291 33.116,-50.76292 57.4042,-60.31247 49.7445,-19.55835 82.6192,-7.19833 121.4919,-1.17439 109.1317,32.13532 147.8583,76.00456 192.2276,67.37096 44.3692,-8.6336 69.6324,-41.99082 77.591,-83.49631 15.9172,-83.01102 -62.7445,-165.60967 -200.7965,-258.15037 -38.7308,-25.9625 -141.649,-96.93108 -243.7263,-117.70068 -82.15417,-16.71585 -190.64457,-21.8814 -251.23316,38.62061 -24.09721,24.06277 -52.47725,81.55238 -62.91843,119.4884 -10.44119,37.93603 -18.4225,82.4219 -21.26711,131.36703 -2.88617,49.66037 5.01133,125.40827 11.0345,178.65592 6.72275,59.4323 14.017,90.2691 30.89885,138.0137 21.89825,61.9318 132.04117,234.0845 217.7735,186.0559 z M 817.20998,1150.7939 c -18.67782,-36.1795 -40.96935,-102.1908 -46.08892,-149.9792 -8.05506,-75.18967 -16.24437,-118.50625 -13.9472,-181.60105 2.77132,-76.11816 21.92315,-124.26663 38.48954,-163.94736 20.72832,-49.64962 53.32044,-79.46468 114.98773,-80.62956 89.1339,-1.68367 128.49277,13.95355 194.91657,35.44536 66.4239,21.49181 126.5359,72.10755 171.1391,102.27652 77.5635,62.66396 117.0705,121.29397 138.3937,165.36142 21.3232,44.06746 17.7893,70.44291 -1.0135,81.01656 -28.5066,16.03049 -70.951,5.33408 -129.2706,-25.08366 -52.086,-27.16647 -106.128,-38.61252 -143.3422,-44.85287 -47.0782,-7.22978 -91.2477,19.58837 -115.4477,46.56849 -12.3591,13.77889 -33.61996,47.2134 -45.28718,75.19915 -11.66722,27.9857 -16.23242,76.8367 -16.47521,99.3621 -0.482,44.7187 -9.42365,99.6169 -18.58276,135.1586 -25.13739,97.545 -100.68959,-14.1004 -128.47137,-94.2945 z"
       id="path3197-8-3"
       inkscape:connector-curvature="0"
       sodipodi:nodetypes="ccscsssssssssccssssscssscssssc" />
    <path
       style="fill:#0a4b74;fill-opacity:1;stroke:none"
       d="M 57.616432,-197.22732 C 4.2673483,-197.0208 -18.658916,-154.40367 10.165539,-43.062139 35.924429,56.437885 72.73006,91.687673 72.532109,172.03445 72.41229,220.66813 42.847791,273.14698 -2.5487463,298.67893 -42.269613,321.01877 -82.639524,333.4272 -121.19864,341.20989 c -38.55912,7.7827 -75.30745,10.93965 -107.78515,14.77652 -32.4777,3.83687 -60.68477,8.35366 -82.16138,18.85603 -21.4766,10.50238 -38.03447,26.6887 -41.77858,54.76953 -6.06091,45.45686 75.58524,98.4619 129.18041,119.69117 61.5997,24.3999 149.989822,36.35469 193.426382,38.88007 43.43656,2.52538 156.071848,14.63199 239.792428,2.12345 C 292.39266,577.91815 393.689,544.69838 454.5766,467.48509 475.66315,440.74464 488.35404,381.05371 485.04015,341.84685 481.72626,302.63998 471.12055,259.13987 451.54974,214.18766 431.97894,169.23545 405.96841,122.83115 376.89563,77.815912 347.82285,32.800674 315.68782,-10.825499 283.86801,-50.221448 214.26219,-136.40009 122.00326,-197.47657 57.616432,-197.22732 z m 7.1875,71.3125 c 49.684848,-0.01 123.037638,62.508384 184.667258,118.931814 30.03131,27.494397 60.59776,71.524109 88.98364,110.308036 38.73287,52.92111 62.89295,97.53486 84.25976,151.95728 24.53214,62.48469 37.00748,125.65502 27.56663,167.60588 -6.93439,30.81328 -38.63145,69.847 -96.09574,92.2538 -83.05892,32.38681 -138.36887,45.78307 -208.12732,48.57346 -69.758453,2.7904 -148.2511216,-7.16793 -200.532631,-20.0617 -52.281509,-12.89378 -87.637579,-27.29444 -118.265679,-41.96014 -30.6281,-14.6657 -56.52823,-42.27501 -66.50503,-56.05039 -12.72202,-17.56583 -3.24393,-60.59522 48.0296,-74.02373 70.92281,-18.57465 76.31923,-2.13508 198.9144564,-27.05339 46.6756826,-9.48715 84.5161416,-47.69818 94.4826636,-83.35053 9.96652,-35.65235 18.53222,-93.52418 8.22058,-137.38163 C 100.09049,79.976498 68.758672,37.990569 54.644447,4.1100008 40.530221,-29.770568 35.776444,-41.974348 34.335182,-47.696067 20.027312,-104.4974 33.986749,-125.9087 64.803932,-125.91482 z"
       id="path3197-8"
       inkscape:connector-curvature="0"
       sodipodi:nodetypes="ssssssssszssssssssssssssssssssssss" />
    <path
       style="opacity:0.66030533999999996;fill:#045589;fill-opacity:1;stroke:none"
       d="m 947.54787,1324.8343 c 48.177,-25.7495 45.0065,-87.5681 44.1436,-134.5545 -1.66208,-62.8039 -10.4531,-133.9009 32.67043,-186.1582 26.3115,-37.62978 63.9611,-71.6076 112.281,-73.35627 83.712,-3.63756 157.7086,44.40535 238.2132,58.90402 51.1978,1.1738 88.4588,-48.27629 99.6706,-93.89084 12.2157,-65.43499 -41.0235,-117.15589 -86.7092,-155.32004 -107.9113,-87.37558 -231.3277,-159.75362 -367.1924,-192.59781 -82.78238,-17.44953 -183.33909,-16.49439 -245.72718,49.14741 -69.48724,79.24142 -75.59128,189.2043 -81.37544,289.40207 -5.51086,73.73496 5.77983,147.30706 14.21168,220.37956 15.07076,58.8861 36.93726,104.7802 73.86498,161.2907 38.92549,44.4774 106.84083,81.7325 165.94873,56.7539 z M 790.33374,1123.2378 c -40.52007,-87.7937 -45.01041,-186.19483 -54.16064,-280.96009 -5.05306,-67.93231 7.48096,-136.62248 38.78868,-197.34921 20.90936,-55.73164 82.42733,-84.96873 139.6187,-80.17059 105.67542,-5.16093 208.83482,34.45618 294.10132,94.88671 71.4978,46.80189 138.6542,106.15771 178.9135,182.64613 28.5188,36.64249 9.2458,94.02737 -42.1819,87.57986 -63.7674,2.39632 -114.8689,-42.01977 -173.9371,-58.53038 -44.0514,-13.16425 -94.3023,-37.73544 -138.0949,-10.27916 -67.69423,39.152 -108.70732,116.4264 -110.79207,193.73603 -8.7988,57.3771 -1.95467,117.2886 -20.17101,172.9312 -25.42525,53.7923 -73.53499,-14.4093 -85.76837,-44.2798 -10.2652,-19.3708 -19.07132,-39.5198 -26.31621,-60.2107 z"
       id="path3197-8-3-8"
       inkscape:connector-curvature="0"
       sodipodi:nodetypes="cccccccccccccccccccccccccc" />
  </g>
</svg>
